<mxfile host="Electron" agent="Mozilla/5.0 (Windows NT 10.0; Win64; x64) AppleWebKit/537.36 (KHTML, like Gecko) draw.io/24.7.5 Chrome/126.0.6478.183 Electron/31.3.0 Safari/537.36" version="24.7.5">
  <diagram name="HMI maual control" id="TnX9ORPbV--yk32t3U6v">
    <mxGraphModel dx="1690" dy="503" grid="1" gridSize="10" guides="1" tooltips="1" connect="1" arrows="1" fold="1" page="1" pageScale="1" pageWidth="850" pageHeight="1100" math="0" shadow="0">
      <root>
        <mxCell id="0" />
        <mxCell id="1" parent="0" />
        <mxCell id="CO8Xuy9hGiyh8shD-msW-103" value="Lifting Transport" style="rounded=0;whiteSpace=wrap;html=1;dashed=1;fillColor=none;verticalAlign=top;" parent="1" vertex="1">
          <mxGeometry x="1430" y="10" width="450" height="450" as="geometry" />
        </mxCell>
        <mxCell id="CO8Xuy9hGiyh8shD-msW-104" value="Utilities" style="rounded=0;whiteSpace=wrap;html=1;dashed=1;fillColor=none;verticalAlign=top;" parent="1" vertex="1">
          <mxGeometry x="-650" y="10" width="230" height="190" as="geometry" />
        </mxCell>
        <mxCell id="CO8Xuy9hGiyh8shD-msW-101" value="Docking Interface" style="rounded=0;whiteSpace=wrap;html=1;dashed=1;fillColor=none;verticalAlign=top;" parent="1" vertex="1">
          <mxGeometry x="280" y="10" width="680" height="310" as="geometry" />
        </mxCell>
        <mxCell id="CO8Xuy9hGiyh8shD-msW-100" value="Pallet Conveyor" style="rounded=0;whiteSpace=wrap;html=1;dashed=1;fillColor=none;verticalAlign=top;" parent="1" vertex="1">
          <mxGeometry x="-410" y="10" width="670" height="320" as="geometry" />
        </mxCell>
        <mxCell id="BcnCHUw4ha58COk9Mgh8-16" value="" style="rounded=0;whiteSpace=wrap;html=1;" parent="1" vertex="1">
          <mxGeometry x="-180" y="40" width="210" height="280" as="geometry" />
        </mxCell>
        <mxCell id="BcnCHUw4ha58COk9Mgh8-17" value="Release Brake" style="rounded=0;whiteSpace=wrap;html=1;shadow=1;fillColor=#f5f5f5;fontColor=#333333;strokeColor=#666666;" parent="1" vertex="1">
          <mxGeometry x="-170" y="70" width="90" height="40" as="geometry" />
        </mxCell>
        <mxCell id="BcnCHUw4ha58COk9Mgh8-18" value="Move Forward" style="rounded=0;whiteSpace=wrap;html=1;shadow=1;fillColor=#f5f5f5;fontColor=#333333;strokeColor=#666666;" parent="1" vertex="1">
          <mxGeometry x="-170" y="170" width="90" height="40" as="geometry" />
        </mxCell>
        <mxCell id="BcnCHUw4ha58COk9Mgh8-19" value="Move Backward" style="rounded=0;whiteSpace=wrap;html=1;shadow=1;fillColor=#f5f5f5;fontColor=#333333;strokeColor=#666666;" parent="1" vertex="1">
          <mxGeometry x="-170" y="220" width="90" height="40" as="geometry" />
        </mxCell>
        <mxCell id="BcnCHUw4ha58COk9Mgh8-20" value="Stop" style="rounded=0;whiteSpace=wrap;html=1;shadow=1;fillColor=#f5f5f5;fontColor=#333333;strokeColor=#666666;" parent="1" vertex="1">
          <mxGeometry x="-170" y="270" width="90" height="40" as="geometry" />
        </mxCell>
        <mxCell id="BcnCHUw4ha58COk9Mgh8-21" value="123.0 mm/s" style="rounded=0;whiteSpace=wrap;html=1;shadow=1;" parent="1" vertex="1">
          <mxGeometry x="-70" y="190" width="90" height="20" as="geometry" />
        </mxCell>
        <mxCell id="BcnCHUw4ha58COk9Mgh8-22" value="" style="ellipse;whiteSpace=wrap;html=1;fillColor=#d5e8d4;strokeColor=#82b366;" parent="1" vertex="1">
          <mxGeometry x="-35" y="140" width="20" height="20" as="geometry" />
        </mxCell>
        <mxCell id="BcnCHUw4ha58COk9Mgh8-23" value="Pallet Conveyor" style="text;html=1;align=center;verticalAlign=middle;whiteSpace=wrap;rounded=0;fontStyle=1" parent="1" vertex="1">
          <mxGeometry x="-170" y="40" width="190" height="20" as="geometry" />
        </mxCell>
        <mxCell id="BcnCHUw4ha58COk9Mgh8-24" value="Target speed:" style="text;html=1;align=center;verticalAlign=middle;whiteSpace=wrap;rounded=0;fontStyle=0" parent="1" vertex="1">
          <mxGeometry x="-70" y="170" width="90" height="20" as="geometry" />
        </mxCell>
        <mxCell id="BcnCHUw4ha58COk9Mgh8-25" value="Drive state:" style="text;html=1;align=center;verticalAlign=middle;whiteSpace=wrap;rounded=0;fontStyle=0" parent="1" vertex="1">
          <mxGeometry x="-70" y="120" width="90" height="20" as="geometry" />
        </mxCell>
        <mxCell id="BcnCHUw4ha58COk9Mgh8-26" value="" style="rounded=0;whiteSpace=wrap;html=1;" parent="1" vertex="1">
          <mxGeometry x="40" y="40" width="210" height="130" as="geometry" />
        </mxCell>
        <mxCell id="BcnCHUw4ha58COk9Mgh8-27" value="Idle" style="rounded=0;whiteSpace=wrap;html=1;shadow=1;fillColor=#f5f5f5;fontColor=#333333;strokeColor=#666666;" parent="1" vertex="1">
          <mxGeometry x="50" y="70" width="90" height="40" as="geometry" />
        </mxCell>
        <mxCell id="BcnCHUw4ha58COk9Mgh8-28" value="Centing" style="rounded=0;whiteSpace=wrap;html=1;shadow=1;fillColor=#f5f5f5;fontColor=#333333;strokeColor=#666666;" parent="1" vertex="1">
          <mxGeometry x="50" y="120" width="90" height="40" as="geometry" />
        </mxCell>
        <mxCell id="BcnCHUw4ha58COk9Mgh8-33" value="Pallet Centring" style="text;html=1;align=center;verticalAlign=middle;whiteSpace=wrap;rounded=0;fontStyle=1" parent="1" vertex="1">
          <mxGeometry x="50" y="40" width="190" height="20" as="geometry" />
        </mxCell>
        <mxCell id="BcnCHUw4ha58COk9Mgh8-36" value="" style="rounded=0;whiteSpace=wrap;html=1;" parent="1" vertex="1">
          <mxGeometry x="-400" y="40" width="210" height="180" as="geometry" />
        </mxCell>
        <mxCell id="BcnCHUw4ha58COk9Mgh8-43" value="Transport Box Detection" style="text;html=1;align=center;verticalAlign=middle;whiteSpace=wrap;rounded=0;fontStyle=1" parent="1" vertex="1">
          <mxGeometry x="-390" y="40" width="190" height="20" as="geometry" />
        </mxCell>
        <mxCell id="BcnCHUw4ha58COk9Mgh8-46" value="" style="ellipse;whiteSpace=wrap;html=1;fillColor=#d5e8d4;strokeColor=#82b366;" parent="1" vertex="1">
          <mxGeometry x="-230" y="70" width="20" height="20" as="geometry" />
        </mxCell>
        <mxCell id="BcnCHUw4ha58COk9Mgh8-47" value="Infeed rear position:" style="text;html=1;align=left;verticalAlign=middle;whiteSpace=wrap;rounded=0;fontStyle=0" parent="1" vertex="1">
          <mxGeometry x="-390" y="70" width="150" height="20" as="geometry" />
        </mxCell>
        <mxCell id="BcnCHUw4ha58COk9Mgh8-50" value="" style="ellipse;whiteSpace=wrap;html=1;fillColor=#d5e8d4;strokeColor=#82b366;" parent="1" vertex="1">
          <mxGeometry x="-230" y="100" width="20" height="20" as="geometry" />
        </mxCell>
        <mxCell id="BcnCHUw4ha58COk9Mgh8-51" value="" style="ellipse;whiteSpace=wrap;html=1;fillColor=#d5e8d4;strokeColor=#82b366;" parent="1" vertex="1">
          <mxGeometry x="-230" y="130" width="20" height="20" as="geometry" />
        </mxCell>
        <mxCell id="BcnCHUw4ha58COk9Mgh8-52" value="" style="ellipse;whiteSpace=wrap;html=1;fillColor=#d5e8d4;strokeColor=#82b366;" parent="1" vertex="1">
          <mxGeometry x="-230" y="160" width="20" height="20" as="geometry" />
        </mxCell>
        <mxCell id="BcnCHUw4ha58COk9Mgh8-53" value="" style="ellipse;whiteSpace=wrap;html=1;fillColor=#d5e8d4;strokeColor=#82b366;" parent="1" vertex="1">
          <mxGeometry x="-230" y="190" width="20" height="20" as="geometry" />
        </mxCell>
        <mxCell id="BcnCHUw4ha58COk9Mgh8-54" value="Infeed front position:" style="text;html=1;align=left;verticalAlign=middle;whiteSpace=wrap;rounded=0;fontStyle=0" parent="1" vertex="1">
          <mxGeometry x="-390" y="100" width="150" height="20" as="geometry" />
        </mxCell>
        <mxCell id="BcnCHUw4ha58COk9Mgh8-55" value="Centring positioin:" style="text;html=1;align=left;verticalAlign=middle;whiteSpace=wrap;rounded=0;fontStyle=0" parent="1" vertex="1">
          <mxGeometry x="-390" y="160" width="150" height="20" as="geometry" />
        </mxCell>
        <mxCell id="BcnCHUw4ha58COk9Mgh8-56" value="Docking position:" style="text;html=1;align=left;verticalAlign=middle;whiteSpace=wrap;rounded=0;fontStyle=0" parent="1" vertex="1">
          <mxGeometry x="-390" y="190" width="150" height="20" as="geometry" />
        </mxCell>
        <mxCell id="BcnCHUw4ha58COk9Mgh8-57" value="Door opened (infeed):" style="text;html=1;align=left;verticalAlign=middle;whiteSpace=wrap;rounded=0;fontStyle=0" parent="1" vertex="1">
          <mxGeometry x="-390" y="130" width="150" height="20" as="geometry" />
        </mxCell>
        <mxCell id="BcnCHUw4ha58COk9Mgh8-61" value="Idle" style="text;html=1;align=center;verticalAlign=middle;whiteSpace=wrap;rounded=0;fontStyle=0" parent="1" vertex="1">
          <mxGeometry x="150" y="70" width="90" height="20" as="geometry" />
        </mxCell>
        <mxCell id="BcnCHUw4ha58COk9Mgh8-62" value="" style="ellipse;whiteSpace=wrap;html=1;fillColor=#d5e8d4;strokeColor=#82b366;" parent="1" vertex="1">
          <mxGeometry x="185" y="90" width="20" height="20" as="geometry" />
        </mxCell>
        <mxCell id="BcnCHUw4ha58COk9Mgh8-65" value="Centre" style="text;html=1;align=center;verticalAlign=middle;whiteSpace=wrap;rounded=0;fontStyle=0" parent="1" vertex="1">
          <mxGeometry x="150" y="120" width="90" height="20" as="geometry" />
        </mxCell>
        <mxCell id="BcnCHUw4ha58COk9Mgh8-66" value="" style="ellipse;whiteSpace=wrap;html=1;fillColor=#d5e8d4;strokeColor=#82b366;" parent="1" vertex="1">
          <mxGeometry x="185" y="140" width="20" height="20" as="geometry" />
        </mxCell>
        <mxCell id="BcnCHUw4ha58COk9Mgh8-67" value="" style="rounded=0;whiteSpace=wrap;html=1;" parent="1" vertex="1">
          <mxGeometry x="290" y="40" width="210" height="130" as="geometry" />
        </mxCell>
        <mxCell id="BcnCHUw4ha58COk9Mgh8-68" value="Open" style="rounded=0;whiteSpace=wrap;html=1;shadow=1;fillColor=#f5f5f5;fontColor=#333333;strokeColor=#666666;" parent="1" vertex="1">
          <mxGeometry x="300" y="70" width="90" height="40" as="geometry" />
        </mxCell>
        <mxCell id="BcnCHUw4ha58COk9Mgh8-69" value="Close" style="rounded=0;whiteSpace=wrap;html=1;shadow=1;fillColor=#f5f5f5;fontColor=#333333;strokeColor=#666666;" parent="1" vertex="1">
          <mxGeometry x="300" y="120" width="90" height="40" as="geometry" />
        </mxCell>
        <mxCell id="BcnCHUw4ha58COk9Mgh8-70" value="Docking Clamp Upper" style="text;html=1;align=center;verticalAlign=middle;whiteSpace=wrap;rounded=0;fontStyle=1" parent="1" vertex="1">
          <mxGeometry x="300" y="40" width="190" height="20" as="geometry" />
        </mxCell>
        <mxCell id="BcnCHUw4ha58COk9Mgh8-72" value="Opened" style="text;html=1;align=center;verticalAlign=middle;whiteSpace=wrap;rounded=0;fontStyle=0" parent="1" vertex="1">
          <mxGeometry x="400" y="70" width="90" height="20" as="geometry" />
        </mxCell>
        <mxCell id="BcnCHUw4ha58COk9Mgh8-73" value="" style="ellipse;whiteSpace=wrap;html=1;fillColor=#d5e8d4;strokeColor=#82b366;" parent="1" vertex="1">
          <mxGeometry x="435" y="90" width="20" height="20" as="geometry" />
        </mxCell>
        <mxCell id="BcnCHUw4ha58COk9Mgh8-75" value="Closed" style="text;html=1;align=center;verticalAlign=middle;whiteSpace=wrap;rounded=0;fontStyle=0" parent="1" vertex="1">
          <mxGeometry x="400" y="120" width="90" height="20" as="geometry" />
        </mxCell>
        <mxCell id="BcnCHUw4ha58COk9Mgh8-76" value="" style="ellipse;whiteSpace=wrap;html=1;fillColor=#d5e8d4;strokeColor=#82b366;" parent="1" vertex="1">
          <mxGeometry x="435" y="140" width="20" height="20" as="geometry" />
        </mxCell>
        <mxCell id="BcnCHUw4ha58COk9Mgh8-89" value="" style="rounded=0;whiteSpace=wrap;html=1;" parent="1" vertex="1">
          <mxGeometry x="520" y="40" width="210" height="130" as="geometry" />
        </mxCell>
        <mxCell id="BcnCHUw4ha58COk9Mgh8-90" value="Release" style="rounded=0;whiteSpace=wrap;html=1;shadow=1;fillColor=#f5f5f5;fontColor=#333333;strokeColor=#666666;" parent="1" vertex="1">
          <mxGeometry x="530" y="70" width="90" height="40" as="geometry" />
        </mxCell>
        <mxCell id="BcnCHUw4ha58COk9Mgh8-91" value="Lock" style="rounded=0;whiteSpace=wrap;html=1;shadow=1;fillColor=#f5f5f5;fontColor=#333333;strokeColor=#666666;" parent="1" vertex="1">
          <mxGeometry x="530" y="120" width="90" height="40" as="geometry" />
        </mxCell>
        <mxCell id="BcnCHUw4ha58COk9Mgh8-92" value="Unlocking Pin Upper" style="text;html=1;align=center;verticalAlign=middle;whiteSpace=wrap;rounded=0;fontStyle=1" parent="1" vertex="1">
          <mxGeometry x="530" y="40" width="190" height="20" as="geometry" />
        </mxCell>
        <mxCell id="BcnCHUw4ha58COk9Mgh8-93" value="" style="ellipse;whiteSpace=wrap;html=1;fillColor=#d5e8d4;strokeColor=#82b366;" parent="1" vertex="1">
          <mxGeometry x="665" y="90" width="20" height="20" as="geometry" />
        </mxCell>
        <mxCell id="BcnCHUw4ha58COk9Mgh8-94" value="Released" style="text;html=1;align=center;verticalAlign=middle;whiteSpace=wrap;rounded=0;fontStyle=0" parent="1" vertex="1">
          <mxGeometry x="630" y="70" width="90" height="20" as="geometry" />
        </mxCell>
        <mxCell id="BcnCHUw4ha58COk9Mgh8-96" value="" style="ellipse;whiteSpace=wrap;html=1;fillColor=#d5e8d4;strokeColor=#82b366;" parent="1" vertex="1">
          <mxGeometry x="665" y="140" width="20" height="20" as="geometry" />
        </mxCell>
        <mxCell id="BcnCHUw4ha58COk9Mgh8-97" value="Locked" style="text;html=1;align=center;verticalAlign=middle;whiteSpace=wrap;rounded=0;fontStyle=0" parent="1" vertex="1">
          <mxGeometry x="630" y="120" width="90" height="20" as="geometry" />
        </mxCell>
        <mxCell id="BcnCHUw4ha58COk9Mgh8-99" value="" style="rounded=0;whiteSpace=wrap;html=1;" parent="1" vertex="1">
          <mxGeometry x="740" y="180" width="210" height="130" as="geometry" />
        </mxCell>
        <mxCell id="BcnCHUw4ha58COk9Mgh8-100" value="Open" style="rounded=0;whiteSpace=wrap;html=1;shadow=1;fillColor=#f5f5f5;fontColor=#333333;strokeColor=#666666;" parent="1" vertex="1">
          <mxGeometry x="750" y="210" width="90" height="40" as="geometry" />
        </mxCell>
        <mxCell id="BcnCHUw4ha58COk9Mgh8-101" value="Close" style="rounded=0;whiteSpace=wrap;html=1;shadow=1;fillColor=#f5f5f5;fontColor=#333333;strokeColor=#666666;" parent="1" vertex="1">
          <mxGeometry x="750" y="260" width="90" height="40" as="geometry" />
        </mxCell>
        <mxCell id="BcnCHUw4ha58COk9Mgh8-102" value="Door Opener" style="text;html=1;align=center;verticalAlign=middle;whiteSpace=wrap;rounded=0;fontStyle=1" parent="1" vertex="1">
          <mxGeometry x="750" y="180" width="190" height="20" as="geometry" />
        </mxCell>
        <mxCell id="BcnCHUw4ha58COk9Mgh8-103" value="" style="ellipse;whiteSpace=wrap;html=1;fillColor=#d5e8d4;strokeColor=#82b366;" parent="1" vertex="1">
          <mxGeometry x="885" y="230" width="20" height="20" as="geometry" />
        </mxCell>
        <mxCell id="BcnCHUw4ha58COk9Mgh8-104" value="Opened" style="text;html=1;align=center;verticalAlign=middle;whiteSpace=wrap;rounded=0;fontStyle=0" parent="1" vertex="1">
          <mxGeometry x="850" y="210" width="90" height="20" as="geometry" />
        </mxCell>
        <mxCell id="BcnCHUw4ha58COk9Mgh8-105" value="" style="ellipse;whiteSpace=wrap;html=1;fillColor=#d5e8d4;strokeColor=#82b366;" parent="1" vertex="1">
          <mxGeometry x="885" y="280" width="20" height="20" as="geometry" />
        </mxCell>
        <mxCell id="BcnCHUw4ha58COk9Mgh8-106" value="Closed" style="text;html=1;align=center;verticalAlign=middle;whiteSpace=wrap;rounded=0;fontStyle=0" parent="1" vertex="1">
          <mxGeometry x="850" y="260" width="90" height="20" as="geometry" />
        </mxCell>
        <mxCell id="BcnCHUw4ha58COk9Mgh8-108" value="" style="rounded=0;whiteSpace=wrap;html=1;" parent="1" vertex="1">
          <mxGeometry x="740" y="40" width="210" height="130" as="geometry" />
        </mxCell>
        <mxCell id="BcnCHUw4ha58COk9Mgh8-109" value="Open" style="rounded=0;whiteSpace=wrap;html=1;shadow=1;fillColor=#f5f5f5;fontColor=#333333;strokeColor=#666666;" parent="1" vertex="1">
          <mxGeometry x="750" y="70" width="90" height="40" as="geometry" />
        </mxCell>
        <mxCell id="BcnCHUw4ha58COk9Mgh8-110" value="Close" style="rounded=0;whiteSpace=wrap;html=1;shadow=1;fillColor=#f5f5f5;fontColor=#333333;strokeColor=#666666;" parent="1" vertex="1">
          <mxGeometry x="750" y="120" width="90" height="40" as="geometry" />
        </mxCell>
        <mxCell id="BcnCHUw4ha58COk9Mgh8-111" value="Door Shutter" style="text;html=1;align=center;verticalAlign=middle;whiteSpace=wrap;rounded=0;fontStyle=1" parent="1" vertex="1">
          <mxGeometry x="750" y="40" width="190" height="20" as="geometry" />
        </mxCell>
        <mxCell id="BcnCHUw4ha58COk9Mgh8-112" value="" style="ellipse;whiteSpace=wrap;html=1;fillColor=#d5e8d4;strokeColor=#82b366;" parent="1" vertex="1">
          <mxGeometry x="885" y="90" width="20" height="20" as="geometry" />
        </mxCell>
        <mxCell id="BcnCHUw4ha58COk9Mgh8-113" value="Opened" style="text;html=1;align=center;verticalAlign=middle;whiteSpace=wrap;rounded=0;fontStyle=0" parent="1" vertex="1">
          <mxGeometry x="850" y="70" width="90" height="20" as="geometry" />
        </mxCell>
        <mxCell id="BcnCHUw4ha58COk9Mgh8-114" value="" style="ellipse;whiteSpace=wrap;html=1;fillColor=#d5e8d4;strokeColor=#82b366;" parent="1" vertex="1">
          <mxGeometry x="885" y="140" width="20" height="20" as="geometry" />
        </mxCell>
        <mxCell id="BcnCHUw4ha58COk9Mgh8-115" value="Closed" style="text;html=1;align=center;verticalAlign=middle;whiteSpace=wrap;rounded=0;fontStyle=0" parent="1" vertex="1">
          <mxGeometry x="850" y="120" width="90" height="20" as="geometry" />
        </mxCell>
        <mxCell id="BcnCHUw4ha58COk9Mgh8-116" value="" style="rounded=0;whiteSpace=wrap;html=1;" parent="1" vertex="1">
          <mxGeometry x="290" y="180" width="210" height="130" as="geometry" />
        </mxCell>
        <mxCell id="BcnCHUw4ha58COk9Mgh8-117" value="Open" style="rounded=0;whiteSpace=wrap;html=1;shadow=1;fillColor=#f5f5f5;fontColor=#333333;strokeColor=#666666;" parent="1" vertex="1">
          <mxGeometry x="300" y="210" width="90" height="40" as="geometry" />
        </mxCell>
        <mxCell id="BcnCHUw4ha58COk9Mgh8-118" value="Close" style="rounded=0;whiteSpace=wrap;html=1;shadow=1;fillColor=#f5f5f5;fontColor=#333333;strokeColor=#666666;" parent="1" vertex="1">
          <mxGeometry x="300" y="260" width="90" height="40" as="geometry" />
        </mxCell>
        <mxCell id="BcnCHUw4ha58COk9Mgh8-119" value="Docking Clamp Lower" style="text;html=1;align=center;verticalAlign=middle;whiteSpace=wrap;rounded=0;fontStyle=1" parent="1" vertex="1">
          <mxGeometry x="300" y="180" width="190" height="20" as="geometry" />
        </mxCell>
        <mxCell id="BcnCHUw4ha58COk9Mgh8-121" value="Opened" style="text;html=1;align=center;verticalAlign=middle;whiteSpace=wrap;rounded=0;fontStyle=0" parent="1" vertex="1">
          <mxGeometry x="400" y="210" width="90" height="20" as="geometry" />
        </mxCell>
        <mxCell id="BcnCHUw4ha58COk9Mgh8-122" value="" style="ellipse;whiteSpace=wrap;html=1;fillColor=#d5e8d4;strokeColor=#82b366;" parent="1" vertex="1">
          <mxGeometry x="435" y="230" width="20" height="20" as="geometry" />
        </mxCell>
        <mxCell id="BcnCHUw4ha58COk9Mgh8-124" value="Closed" style="text;html=1;align=center;verticalAlign=middle;whiteSpace=wrap;rounded=0;fontStyle=0" parent="1" vertex="1">
          <mxGeometry x="400" y="260" width="90" height="20" as="geometry" />
        </mxCell>
        <mxCell id="BcnCHUw4ha58COk9Mgh8-125" value="" style="ellipse;whiteSpace=wrap;html=1;fillColor=#d5e8d4;strokeColor=#82b366;" parent="1" vertex="1">
          <mxGeometry x="435" y="280" width="20" height="20" as="geometry" />
        </mxCell>
        <mxCell id="BcnCHUw4ha58COk9Mgh8-126" value="" style="rounded=0;whiteSpace=wrap;html=1;" parent="1" vertex="1">
          <mxGeometry x="520" y="180" width="210" height="130" as="geometry" />
        </mxCell>
        <mxCell id="BcnCHUw4ha58COk9Mgh8-127" value="Release" style="rounded=0;whiteSpace=wrap;html=1;shadow=1;fillColor=#f5f5f5;fontColor=#333333;strokeColor=#666666;" parent="1" vertex="1">
          <mxGeometry x="530" y="210" width="90" height="40" as="geometry" />
        </mxCell>
        <mxCell id="BcnCHUw4ha58COk9Mgh8-128" value="Lock" style="rounded=0;whiteSpace=wrap;html=1;shadow=1;fillColor=#f5f5f5;fontColor=#333333;strokeColor=#666666;" parent="1" vertex="1">
          <mxGeometry x="530" y="260" width="90" height="40" as="geometry" />
        </mxCell>
        <mxCell id="BcnCHUw4ha58COk9Mgh8-129" value="Unlocking Pin Lower" style="text;html=1;align=center;verticalAlign=middle;whiteSpace=wrap;rounded=0;fontStyle=1" parent="1" vertex="1">
          <mxGeometry x="530" y="180" width="190" height="20" as="geometry" />
        </mxCell>
        <mxCell id="BcnCHUw4ha58COk9Mgh8-130" value="" style="ellipse;whiteSpace=wrap;html=1;fillColor=#d5e8d4;strokeColor=#82b366;" parent="1" vertex="1">
          <mxGeometry x="665" y="230" width="20" height="20" as="geometry" />
        </mxCell>
        <mxCell id="BcnCHUw4ha58COk9Mgh8-131" value="Released" style="text;html=1;align=center;verticalAlign=middle;whiteSpace=wrap;rounded=0;fontStyle=0" parent="1" vertex="1">
          <mxGeometry x="630" y="210" width="90" height="20" as="geometry" />
        </mxCell>
        <mxCell id="BcnCHUw4ha58COk9Mgh8-132" value="" style="ellipse;whiteSpace=wrap;html=1;fillColor=#d5e8d4;strokeColor=#82b366;" parent="1" vertex="1">
          <mxGeometry x="665" y="280" width="20" height="20" as="geometry" />
        </mxCell>
        <mxCell id="BcnCHUw4ha58COk9Mgh8-133" value="Locked" style="text;html=1;align=center;verticalAlign=middle;whiteSpace=wrap;rounded=0;fontStyle=0" parent="1" vertex="1">
          <mxGeometry x="630" y="260" width="90" height="20" as="geometry" />
        </mxCell>
        <mxCell id="UFwwj-xUKq53SgtM4bMM-1" value="" style="rounded=0;whiteSpace=wrap;html=1;" parent="1" vertex="1">
          <mxGeometry x="40" y="560" width="320" height="220" as="geometry" />
        </mxCell>
        <mxCell id="UFwwj-xUKq53SgtM4bMM-2" value="TB to centring position" style="rounded=0;whiteSpace=wrap;html=1;shadow=1;fillColor=#f5f5f5;fontColor=#333333;strokeColor=#666666;" parent="1" vertex="1">
          <mxGeometry x="160" y="660" width="90" height="40" as="geometry" />
        </mxCell>
        <mxCell id="UFwwj-xUKq53SgtM4bMM-3" value="TB to docking position" style="rounded=0;whiteSpace=wrap;html=1;shadow=1;fillColor=#f5f5f5;fontColor=#333333;strokeColor=#666666;" parent="1" vertex="1">
          <mxGeometry x="260" y="660" width="90" height="40" as="geometry" />
        </mxCell>
        <mxCell id="UFwwj-xUKq53SgtM4bMM-4" value="Pallet Conveyor" style="text;html=1;align=center;verticalAlign=middle;whiteSpace=wrap;rounded=0;fontStyle=1" parent="1" vertex="1">
          <mxGeometry x="40" y="560" width="320" height="20" as="geometry" />
        </mxCell>
        <mxCell id="UFwwj-xUKq53SgtM4bMM-11" value="TB to infeed position" style="rounded=0;whiteSpace=wrap;html=1;shadow=1;fillColor=#f5f5f5;fontColor=#333333;strokeColor=#666666;" parent="1" vertex="1">
          <mxGeometry x="60" y="660" width="90" height="40" as="geometry" />
        </mxCell>
        <mxCell id="UFwwj-xUKq53SgtM4bMM-12" value="" style="ellipse;whiteSpace=wrap;html=1;fillColor=#d5e8d4;strokeColor=#82b366;" parent="1" vertex="1">
          <mxGeometry x="60" y="710" width="20" height="20" as="geometry" />
        </mxCell>
        <mxCell id="UFwwj-xUKq53SgtM4bMM-14" value="" style="ellipse;whiteSpace=wrap;html=1;fillColor=#d5e8d4;strokeColor=#82b366;" parent="1" vertex="1">
          <mxGeometry x="130" y="710" width="20" height="20" as="geometry" />
        </mxCell>
        <mxCell id="UFwwj-xUKq53SgtM4bMM-15" value="" style="ellipse;whiteSpace=wrap;html=1;fillColor=#d5e8d4;strokeColor=#82b366;" parent="1" vertex="1">
          <mxGeometry x="190" y="710" width="20" height="20" as="geometry" />
        </mxCell>
        <mxCell id="UFwwj-xUKq53SgtM4bMM-16" value="" style="ellipse;whiteSpace=wrap;html=1;fillColor=#d5e8d4;strokeColor=#82b366;" parent="1" vertex="1">
          <mxGeometry x="290" y="710" width="20" height="20" as="geometry" />
        </mxCell>
        <mxCell id="UFwwj-xUKq53SgtM4bMM-17" value="" style="ellipse;whiteSpace=wrap;html=1;fillColor=#d5e8d4;strokeColor=#82b366;" parent="1" vertex="1">
          <mxGeometry x="100" y="630" width="20" height="20" as="geometry" />
        </mxCell>
        <mxCell id="UFwwj-xUKq53SgtM4bMM-21" value="Outer&lt;div&gt;TB door&lt;/div&gt;&lt;div&gt;opened&lt;/div&gt;" style="text;html=1;align=center;verticalAlign=middle;whiteSpace=wrap;rounded=0;fontStyle=0" parent="1" vertex="1">
          <mxGeometry x="70" y="580" width="80" height="40" as="geometry" />
        </mxCell>
        <mxCell id="UFwwj-xUKq53SgtM4bMM-20" value="Docking&lt;div&gt;position&lt;/div&gt;" style="text;html=1;align=center;verticalAlign=middle;whiteSpace=wrap;rounded=0;fontStyle=0;fillColor=none;" parent="1" vertex="1">
          <mxGeometry x="255" y="730" width="90" height="40" as="geometry" />
        </mxCell>
        <mxCell id="UFwwj-xUKq53SgtM4bMM-19" value="Centring&lt;div&gt;positioin&lt;/div&gt;" style="text;html=1;align=center;verticalAlign=middle;whiteSpace=wrap;rounded=0;fontStyle=0;fillColor=none;" parent="1" vertex="1">
          <mxGeometry x="160" y="730" width="80" height="40" as="geometry" />
        </mxCell>
        <mxCell id="UFwwj-xUKq53SgtM4bMM-18" value="Infeed&lt;div&gt;front&lt;div&gt;position&lt;/div&gt;&lt;/div&gt;" style="text;html=1;align=center;verticalAlign=middle;whiteSpace=wrap;rounded=0;fontStyle=0;fillColor=none;" parent="1" vertex="1">
          <mxGeometry x="95" y="735" width="90" height="40" as="geometry" />
        </mxCell>
        <mxCell id="UFwwj-xUKq53SgtM4bMM-13" value="Infeed&lt;div&gt;rear&lt;/div&gt;&lt;div&gt;position&lt;/div&gt;" style="text;html=1;align=center;verticalAlign=middle;whiteSpace=wrap;rounded=0;fontStyle=0;fillColor=none;" parent="1" vertex="1">
          <mxGeometry x="30" y="735" width="80" height="40" as="geometry" />
        </mxCell>
        <mxCell id="UFwwj-xUKq53SgtM4bMM-37" value="" style="rounded=0;whiteSpace=wrap;html=1;" parent="1" vertex="1">
          <mxGeometry x="440" y="560" width="320" height="100" as="geometry" />
        </mxCell>
        <mxCell id="UFwwj-xUKq53SgtM4bMM-40" value="Pallet Centring" style="text;html=1;align=center;verticalAlign=middle;whiteSpace=wrap;rounded=0;fontStyle=1" parent="1" vertex="1">
          <mxGeometry x="440" y="560" width="320" height="20" as="geometry" />
        </mxCell>
        <mxCell id="UFwwj-xUKq53SgtM4bMM-41" value="Centring TB" style="rounded=0;whiteSpace=wrap;html=1;shadow=1;fillColor=#f5f5f5;fontColor=#333333;strokeColor=#666666;" parent="1" vertex="1">
          <mxGeometry x="460" y="600" width="90" height="40" as="geometry" />
        </mxCell>
        <mxCell id="UFwwj-xUKq53SgtM4bMM-44" value="" style="ellipse;whiteSpace=wrap;html=1;fillColor=#d5e8d4;strokeColor=#82b366;" parent="1" vertex="1">
          <mxGeometry x="595" y="590" width="20" height="20" as="geometry" />
        </mxCell>
        <mxCell id="UFwwj-xUKq53SgtM4bMM-45" value="" style="ellipse;whiteSpace=wrap;html=1;fillColor=#d5e8d4;strokeColor=#82b366;" parent="1" vertex="1">
          <mxGeometry x="595" y="630" width="20" height="20" as="geometry" />
        </mxCell>
        <mxCell id="UFwwj-xUKq53SgtM4bMM-49" value="Centring&amp;nbsp;&lt;span style=&quot;background-color: initial;&quot;&gt;position&lt;/span&gt;" style="text;html=1;align=left;verticalAlign=middle;whiteSpace=wrap;rounded=0;fontStyle=0;fillColor=none;" parent="1" vertex="1">
          <mxGeometry x="625" y="590" width="115" height="20" as="geometry" />
        </mxCell>
        <mxCell id="UFwwj-xUKq53SgtM4bMM-52" value="Idle&amp;nbsp;&lt;span style=&quot;background-color: initial;&quot;&gt;position&lt;/span&gt;" style="text;html=1;align=left;verticalAlign=middle;whiteSpace=wrap;rounded=0;fontStyle=0;fillColor=none;" parent="1" vertex="1">
          <mxGeometry x="625" y="630" width="115" height="20" as="geometry" />
        </mxCell>
        <mxCell id="UFwwj-xUKq53SgtM4bMM-55" value="" style="rounded=0;whiteSpace=wrap;html=1;" parent="1" vertex="1">
          <mxGeometry x="40" y="820" width="320" height="320" as="geometry" />
        </mxCell>
        <mxCell id="UFwwj-xUKq53SgtM4bMM-58" value="Docking Interface" style="text;html=1;align=center;verticalAlign=middle;whiteSpace=wrap;rounded=0;fontStyle=1" parent="1" vertex="1">
          <mxGeometry x="40" y="820" width="320" height="20" as="geometry" />
        </mxCell>
        <mxCell id="UFwwj-xUKq53SgtM4bMM-59" value="Dock&lt;div&gt;TB&lt;/div&gt;" style="rounded=0;whiteSpace=wrap;html=1;shadow=1;fillColor=#f5f5f5;fontColor=#333333;strokeColor=#666666;" parent="1" vertex="1">
          <mxGeometry x="50" y="850" width="90" height="40" as="geometry" />
        </mxCell>
        <mxCell id="UFwwj-xUKq53SgtM4bMM-70" value="Undock&lt;div&gt;TB&lt;/div&gt;" style="rounded=0;whiteSpace=wrap;html=1;shadow=1;fillColor=#f5f5f5;fontColor=#333333;strokeColor=#666666;" parent="1" vertex="1">
          <mxGeometry x="50" y="910" width="90" height="40" as="geometry" />
        </mxCell>
        <mxCell id="UFwwj-xUKq53SgtM4bMM-72" value="Open&lt;div&gt;Inner Door&lt;/div&gt;" style="rounded=0;whiteSpace=wrap;html=1;shadow=1;fillColor=#f5f5f5;fontColor=#333333;strokeColor=#666666;" parent="1" vertex="1">
          <mxGeometry x="50" y="987.5" width="90" height="40" as="geometry" />
        </mxCell>
        <mxCell id="UFwwj-xUKq53SgtM4bMM-74" value="" style="ellipse;whiteSpace=wrap;html=1;fillColor=#d5e8d4;strokeColor=#82b366;" parent="1" vertex="1">
          <mxGeometry x="185" y="872" width="20" height="20" as="geometry" />
        </mxCell>
        <mxCell id="UFwwj-xUKq53SgtM4bMM-75" value="Docked Upper" style="text;html=1;align=left;verticalAlign=middle;whiteSpace=wrap;rounded=0;fontStyle=0;fillColor=none;" parent="1" vertex="1">
          <mxGeometry x="215" y="848" width="115" height="20" as="geometry" />
        </mxCell>
        <mxCell id="UFwwj-xUKq53SgtM4bMM-77" value="" style="ellipse;whiteSpace=wrap;html=1;fillColor=#d5e8d4;strokeColor=#82b366;" parent="1" vertex="1">
          <mxGeometry x="185" y="848" width="20" height="20" as="geometry" />
        </mxCell>
        <mxCell id="UFwwj-xUKq53SgtM4bMM-79" value="Docked Lower" style="text;html=1;align=left;verticalAlign=middle;whiteSpace=wrap;rounded=0;fontStyle=0;fillColor=none;" parent="1" vertex="1">
          <mxGeometry x="215" y="872" width="115" height="20" as="geometry" />
        </mxCell>
        <mxCell id="UFwwj-xUKq53SgtM4bMM-80" value="" style="ellipse;whiteSpace=wrap;html=1;fillColor=#d5e8d4;strokeColor=#82b366;" parent="1" vertex="1">
          <mxGeometry x="185" y="932" width="20" height="20" as="geometry" />
        </mxCell>
        <mxCell id="UFwwj-xUKq53SgtM4bMM-81" value="Undocked Upper" style="text;html=1;align=left;verticalAlign=middle;whiteSpace=wrap;rounded=0;fontStyle=0;fillColor=none;" parent="1" vertex="1">
          <mxGeometry x="215" y="908" width="115" height="20" as="geometry" />
        </mxCell>
        <mxCell id="UFwwj-xUKq53SgtM4bMM-83" value="" style="ellipse;whiteSpace=wrap;html=1;fillColor=#d5e8d4;strokeColor=#82b366;" parent="1" vertex="1">
          <mxGeometry x="185" y="908" width="20" height="20" as="geometry" />
        </mxCell>
        <mxCell id="UFwwj-xUKq53SgtM4bMM-85" value="Undocked Lower" style="text;html=1;align=left;verticalAlign=middle;whiteSpace=wrap;rounded=0;fontStyle=0;fillColor=none;" parent="1" vertex="1">
          <mxGeometry x="215" y="932" width="115" height="20" as="geometry" />
        </mxCell>
        <mxCell id="UFwwj-xUKq53SgtM4bMM-87" value="" style="ellipse;whiteSpace=wrap;html=1;fillColor=#d5e8d4;strokeColor=#82b366;" parent="1" vertex="1">
          <mxGeometry x="185" y="1002" width="20" height="20" as="geometry" />
        </mxCell>
        <mxCell id="UFwwj-xUKq53SgtM4bMM-88" value="Lock released" style="text;html=1;align=left;verticalAlign=middle;whiteSpace=wrap;rounded=0;fontStyle=0;fillColor=none;" parent="1" vertex="1">
          <mxGeometry x="215" y="978" width="115" height="20" as="geometry" />
        </mxCell>
        <mxCell id="UFwwj-xUKq53SgtM4bMM-89" value="" style="ellipse;whiteSpace=wrap;html=1;fillColor=#d5e8d4;strokeColor=#82b366;" parent="1" vertex="1">
          <mxGeometry x="185" y="978" width="20" height="20" as="geometry" />
        </mxCell>
        <mxCell id="UFwwj-xUKq53SgtM4bMM-90" value="Shutter opened" style="text;html=1;align=left;verticalAlign=middle;whiteSpace=wrap;rounded=0;fontStyle=0;fillColor=none;" parent="1" vertex="1">
          <mxGeometry x="215" y="1002" width="115" height="20" as="geometry" />
        </mxCell>
        <mxCell id="UFwwj-xUKq53SgtM4bMM-91" value="" style="ellipse;whiteSpace=wrap;html=1;fillColor=#d5e8d4;strokeColor=#82b366;" parent="1" vertex="1">
          <mxGeometry x="185" y="1026" width="20" height="20" as="geometry" />
        </mxCell>
        <mxCell id="UFwwj-xUKq53SgtM4bMM-92" value="Door opened" style="text;html=1;align=left;verticalAlign=middle;whiteSpace=wrap;rounded=0;fontStyle=0;fillColor=none;" parent="1" vertex="1">
          <mxGeometry x="215" y="1026" width="115" height="20" as="geometry" />
        </mxCell>
        <mxCell id="UFwwj-xUKq53SgtM4bMM-93" value="Close&lt;div&gt;Inner Door&lt;/div&gt;" style="rounded=0;whiteSpace=wrap;html=1;shadow=1;fillColor=#f5f5f5;fontColor=#333333;strokeColor=#666666;" parent="1" vertex="1">
          <mxGeometry x="50" y="1067.5" width="90" height="40" as="geometry" />
        </mxCell>
        <mxCell id="UFwwj-xUKq53SgtM4bMM-94" value="" style="ellipse;whiteSpace=wrap;html=1;fillColor=#d5e8d4;strokeColor=#82b366;" parent="1" vertex="1">
          <mxGeometry x="185" y="1082" width="20" height="20" as="geometry" />
        </mxCell>
        <mxCell id="UFwwj-xUKq53SgtM4bMM-95" value="Lock locked" style="text;html=1;align=left;verticalAlign=middle;whiteSpace=wrap;rounded=0;fontStyle=0;fillColor=none;" parent="1" vertex="1">
          <mxGeometry x="215" y="1058" width="115" height="20" as="geometry" />
        </mxCell>
        <mxCell id="UFwwj-xUKq53SgtM4bMM-96" value="" style="ellipse;whiteSpace=wrap;html=1;fillColor=#d5e8d4;strokeColor=#82b366;" parent="1" vertex="1">
          <mxGeometry x="185" y="1058" width="20" height="20" as="geometry" />
        </mxCell>
        <mxCell id="UFwwj-xUKq53SgtM4bMM-97" value="Shutter closed" style="text;html=1;align=left;verticalAlign=middle;whiteSpace=wrap;rounded=0;fontStyle=0;fillColor=none;" parent="1" vertex="1">
          <mxGeometry x="215" y="1082" width="115" height="20" as="geometry" />
        </mxCell>
        <mxCell id="UFwwj-xUKq53SgtM4bMM-98" value="" style="ellipse;whiteSpace=wrap;html=1;fillColor=#d5e8d4;strokeColor=#82b366;" parent="1" vertex="1">
          <mxGeometry x="185" y="1106" width="20" height="20" as="geometry" />
        </mxCell>
        <mxCell id="UFwwj-xUKq53SgtM4bMM-99" value="Door closed" style="text;html=1;align=left;verticalAlign=middle;whiteSpace=wrap;rounded=0;fontStyle=0;fillColor=none;" parent="1" vertex="1">
          <mxGeometry x="215" y="1106" width="115" height="20" as="geometry" />
        </mxCell>
        <mxCell id="UFwwj-xUKq53SgtM4bMM-100" value="" style="rounded=0;whiteSpace=wrap;html=1;" parent="1" vertex="1">
          <mxGeometry x="-640" y="40" width="210" height="150" as="geometry" />
        </mxCell>
        <mxCell id="UFwwj-xUKq53SgtM4bMM-101" value="Utilities" style="text;html=1;align=center;verticalAlign=middle;whiteSpace=wrap;rounded=0;fontStyle=1" parent="1" vertex="1">
          <mxGeometry x="-630" y="40" width="190" height="20" as="geometry" />
        </mxCell>
        <mxCell id="UFwwj-xUKq53SgtM4bMM-102" value="ok" style="ellipse;whiteSpace=wrap;html=1;fillColor=#d5e8d4;strokeColor=#82b366;" parent="1" vertex="1">
          <mxGeometry x="-470" y="70" width="20" height="20" as="geometry" />
        </mxCell>
        <mxCell id="UFwwj-xUKq53SgtM4bMM-103" value="Safety OK" style="text;html=1;align=left;verticalAlign=middle;whiteSpace=wrap;rounded=0;fontStyle=0" parent="1" vertex="1">
          <mxGeometry x="-630" y="70" width="150" height="20" as="geometry" />
        </mxCell>
        <mxCell id="UFwwj-xUKq53SgtM4bMM-104" value="ok" style="ellipse;whiteSpace=wrap;html=1;fillColor=#d5e8d4;strokeColor=#82b366;" parent="1" vertex="1">
          <mxGeometry x="-470" y="100" width="20" height="20" as="geometry" />
        </mxCell>
        <mxCell id="UFwwj-xUKq53SgtM4bMM-105" value="ok" style="ellipse;whiteSpace=wrap;html=1;fillColor=#d5e8d4;strokeColor=#82b366;" parent="1" vertex="1">
          <mxGeometry x="-470" y="130" width="20" height="20" as="geometry" />
        </mxCell>
        <mxCell id="UFwwj-xUKq53SgtM4bMM-106" value="err" style="ellipse;whiteSpace=wrap;html=1;fillColor=#f8cecc;strokeColor=#b85450;" parent="1" vertex="1">
          <mxGeometry x="-470" y="160" width="20" height="20" as="geometry" />
        </mxCell>
        <mxCell id="UFwwj-xUKq53SgtM4bMM-108" value="Power OK" style="text;html=1;align=left;verticalAlign=middle;whiteSpace=wrap;rounded=0;fontStyle=0" parent="1" vertex="1">
          <mxGeometry x="-630" y="100" width="150" height="20" as="geometry" />
        </mxCell>
        <mxCell id="UFwwj-xUKq53SgtM4bMM-109" value="Air pressure OK" style="text;html=1;align=left;verticalAlign=middle;whiteSpace=wrap;rounded=0;fontStyle=0" parent="1" vertex="1">
          <mxGeometry x="-630" y="130" width="150" height="20" as="geometry" />
        </mxCell>
        <mxCell id="UFwwj-xUKq53SgtM4bMM-110" value="Beacon" style="text;html=1;align=left;verticalAlign=middle;whiteSpace=wrap;rounded=0;fontStyle=0" parent="1" vertex="1">
          <mxGeometry x="-630" y="160" width="150" height="20" as="geometry" />
        </mxCell>
        <mxCell id="UFwwj-xUKq53SgtM4bMM-112" value="wrn" style="ellipse;whiteSpace=wrap;html=1;fillColor=#fff2cc;strokeColor=#d6b656;" parent="1" vertex="1">
          <mxGeometry x="-500" y="160" width="20" height="20" as="geometry" />
        </mxCell>
        <mxCell id="UFwwj-xUKq53SgtM4bMM-113" value="run" style="ellipse;whiteSpace=wrap;html=1;fillColor=#d5e8d4;strokeColor=#82b366;" parent="1" vertex="1">
          <mxGeometry x="-530" y="160" width="20" height="20" as="geometry" />
        </mxCell>
        <mxCell id="UFwwj-xUKq53SgtM4bMM-115" value="Apply Brake" style="rounded=0;whiteSpace=wrap;html=1;shadow=1;fillColor=#f5f5f5;fontColor=#333333;strokeColor=#666666;" parent="1" vertex="1">
          <mxGeometry x="-170" y="120" width="90" height="40" as="geometry" />
        </mxCell>
        <mxCell id="mV6Md1QB_j5lRCP0KHzR-1" value="" style="rounded=0;whiteSpace=wrap;html=1;" parent="1" vertex="1">
          <mxGeometry x="440" y="820" width="320" height="390" as="geometry" />
        </mxCell>
        <mxCell id="mV6Md1QB_j5lRCP0KHzR-2" value="Docking Interface" style="text;html=1;align=center;verticalAlign=middle;whiteSpace=wrap;rounded=0;fontStyle=1" parent="1" vertex="1">
          <mxGeometry x="440" y="820" width="320" height="20" as="geometry" />
        </mxCell>
        <mxCell id="mV6Md1QB_j5lRCP0KHzR-3" value="Dock&lt;div&gt;TB&lt;/div&gt;" style="rounded=0;whiteSpace=wrap;html=1;shadow=1;fillColor=#f5f5f5;fontColor=#333333;strokeColor=#666666;" parent="1" vertex="1">
          <mxGeometry x="450" y="850" width="90" height="40" as="geometry" />
        </mxCell>
        <mxCell id="mV6Md1QB_j5lRCP0KHzR-4" value="Undock&lt;div&gt;TB&lt;/div&gt;" style="rounded=0;whiteSpace=wrap;html=1;shadow=1;fillColor=#f5f5f5;fontColor=#333333;strokeColor=#666666;" parent="1" vertex="1">
          <mxGeometry x="450" y="910" width="90" height="40" as="geometry" />
        </mxCell>
        <mxCell id="mV6Md1QB_j5lRCP0KHzR-5" value="&lt;div&gt;Releas&lt;/div&gt;&lt;div&gt;Inner Door&lt;/div&gt;" style="rounded=0;whiteSpace=wrap;html=1;shadow=1;fillColor=#f5f5f5;fontColor=#333333;strokeColor=#666666;" parent="1" vertex="1">
          <mxGeometry x="450" y="977" width="90" height="40" as="geometry" />
        </mxCell>
        <mxCell id="mV6Md1QB_j5lRCP0KHzR-6" value="" style="ellipse;whiteSpace=wrap;html=1;fillColor=#d5e8d4;strokeColor=#82b366;" parent="1" vertex="1">
          <mxGeometry x="585" y="872" width="20" height="20" as="geometry" />
        </mxCell>
        <mxCell id="mV6Md1QB_j5lRCP0KHzR-7" value="Docked Upper" style="text;html=1;align=left;verticalAlign=middle;whiteSpace=wrap;rounded=0;fontStyle=0;fillColor=none;" parent="1" vertex="1">
          <mxGeometry x="615" y="848" width="115" height="20" as="geometry" />
        </mxCell>
        <mxCell id="mV6Md1QB_j5lRCP0KHzR-11" value="Docked Lower" style="text;html=1;align=left;verticalAlign=middle;whiteSpace=wrap;rounded=0;fontStyle=0;fillColor=none;" parent="1" vertex="1">
          <mxGeometry x="615" y="872" width="115" height="20" as="geometry" />
        </mxCell>
        <mxCell id="mV6Md1QB_j5lRCP0KHzR-12" value="" style="ellipse;whiteSpace=wrap;html=1;fillColor=#d5e8d4;strokeColor=#82b366;" parent="1" vertex="1">
          <mxGeometry x="585" y="932" width="20" height="20" as="geometry" />
        </mxCell>
        <mxCell id="mV6Md1QB_j5lRCP0KHzR-13" value="Undocked Upper" style="text;html=1;align=left;verticalAlign=middle;whiteSpace=wrap;rounded=0;fontStyle=0;fillColor=none;" parent="1" vertex="1">
          <mxGeometry x="615" y="908" width="115" height="20" as="geometry" />
        </mxCell>
        <mxCell id="mV6Md1QB_j5lRCP0KHzR-17" value="Undocked Lower" style="text;html=1;align=left;verticalAlign=middle;whiteSpace=wrap;rounded=0;fontStyle=0;fillColor=none;" parent="1" vertex="1">
          <mxGeometry x="615" y="932" width="115" height="20" as="geometry" />
        </mxCell>
        <mxCell id="mV6Md1QB_j5lRCP0KHzR-19" value="Lock released" style="text;html=1;align=left;verticalAlign=middle;whiteSpace=wrap;rounded=0;fontStyle=0;fillColor=none;" parent="1" vertex="1">
          <mxGeometry x="615" y="987" width="115" height="20" as="geometry" />
        </mxCell>
        <mxCell id="mV6Md1QB_j5lRCP0KHzR-20" value="" style="ellipse;whiteSpace=wrap;html=1;fillColor=#d5e8d4;strokeColor=#82b366;" parent="1" vertex="1">
          <mxGeometry x="585" y="987" width="20" height="20" as="geometry" />
        </mxCell>
        <mxCell id="mV6Md1QB_j5lRCP0KHzR-24" value="Lock&lt;div&gt;Inner Door&lt;/div&gt;" style="rounded=0;whiteSpace=wrap;html=1;shadow=1;fillColor=#f5f5f5;fontColor=#333333;strokeColor=#666666;" parent="1" vertex="1">
          <mxGeometry x="450" y="1027.5" width="90" height="40" as="geometry" />
        </mxCell>
        <mxCell id="mV6Md1QB_j5lRCP0KHzR-26" value="Lock locked" style="text;html=1;align=left;verticalAlign=middle;whiteSpace=wrap;rounded=0;fontStyle=0;fillColor=none;" parent="1" vertex="1">
          <mxGeometry x="615" y="1037.5" width="115" height="20" as="geometry" />
        </mxCell>
        <mxCell id="mV6Md1QB_j5lRCP0KHzR-27" value="" style="ellipse;whiteSpace=wrap;html=1;fillColor=#d5e8d4;strokeColor=#82b366;" parent="1" vertex="1">
          <mxGeometry x="585" y="1037.5" width="20" height="20" as="geometry" />
        </mxCell>
        <mxCell id="mV6Md1QB_j5lRCP0KHzR-31" value="Open&lt;div&gt;Inner Door&lt;/div&gt;" style="rounded=0;whiteSpace=wrap;html=1;shadow=1;fillColor=#f5f5f5;fontColor=#333333;strokeColor=#666666;" parent="1" vertex="1">
          <mxGeometry x="450" y="1092" width="90" height="40" as="geometry" />
        </mxCell>
        <mxCell id="mV6Md1QB_j5lRCP0KHzR-32" value="" style="ellipse;whiteSpace=wrap;html=1;fillColor=#d5e8d4;strokeColor=#82b366;" parent="1" vertex="1">
          <mxGeometry x="585" y="1090" width="20" height="20" as="geometry" />
        </mxCell>
        <mxCell id="mV6Md1QB_j5lRCP0KHzR-35" value="Shutter opened" style="text;html=1;align=left;verticalAlign=middle;whiteSpace=wrap;rounded=0;fontStyle=0;fillColor=none;" parent="1" vertex="1">
          <mxGeometry x="615" y="1090" width="115" height="20" as="geometry" />
        </mxCell>
        <mxCell id="mV6Md1QB_j5lRCP0KHzR-36" value="" style="ellipse;whiteSpace=wrap;html=1;fillColor=#d5e8d4;strokeColor=#82b366;" parent="1" vertex="1">
          <mxGeometry x="585" y="1114" width="20" height="20" as="geometry" />
        </mxCell>
        <mxCell id="mV6Md1QB_j5lRCP0KHzR-37" value="Door opened" style="text;html=1;align=left;verticalAlign=middle;whiteSpace=wrap;rounded=0;fontStyle=0;fillColor=none;" parent="1" vertex="1">
          <mxGeometry x="615" y="1114" width="115" height="20" as="geometry" />
        </mxCell>
        <mxCell id="mV6Md1QB_j5lRCP0KHzR-38" value="Close&lt;div&gt;Inner Door&lt;/div&gt;" style="rounded=0;whiteSpace=wrap;html=1;shadow=1;fillColor=#f5f5f5;fontColor=#333333;strokeColor=#666666;" parent="1" vertex="1">
          <mxGeometry x="450" y="1154" width="90" height="40" as="geometry" />
        </mxCell>
        <mxCell id="mV6Md1QB_j5lRCP0KHzR-39" value="" style="ellipse;whiteSpace=wrap;html=1;fillColor=#d5e8d4;strokeColor=#82b366;" parent="1" vertex="1">
          <mxGeometry x="585" y="1152" width="20" height="20" as="geometry" />
        </mxCell>
        <mxCell id="mV6Md1QB_j5lRCP0KHzR-42" value="Shutter closed" style="text;html=1;align=left;verticalAlign=middle;whiteSpace=wrap;rounded=0;fontStyle=0;fillColor=none;" parent="1" vertex="1">
          <mxGeometry x="615" y="1152" width="115" height="20" as="geometry" />
        </mxCell>
        <mxCell id="mV6Md1QB_j5lRCP0KHzR-43" value="" style="ellipse;whiteSpace=wrap;html=1;fillColor=#d5e8d4;strokeColor=#82b366;" parent="1" vertex="1">
          <mxGeometry x="585" y="1176" width="20" height="20" as="geometry" />
        </mxCell>
        <mxCell id="mV6Md1QB_j5lRCP0KHzR-44" value="Door closed" style="text;html=1;align=left;verticalAlign=middle;whiteSpace=wrap;rounded=0;fontStyle=0;fillColor=none;" parent="1" vertex="1">
          <mxGeometry x="615" y="1176" width="115" height="20" as="geometry" />
        </mxCell>
        <mxCell id="mV6Md1QB_j5lRCP0KHzR-45" value="OF" style="text;html=1;align=center;verticalAlign=middle;whiteSpace=wrap;rounded=0;fontStyle=1" parent="1" vertex="1">
          <mxGeometry x="380" y="962" width="40" height="40" as="geometry" />
        </mxCell>
        <mxCell id="4BeyeUX639bfHDLM1RSF-2" value="" style="ellipse;whiteSpace=wrap;html=1;fillColor=#d5e8d4;strokeColor=#82b366;" parent="1" vertex="1">
          <mxGeometry x="-35" y="90" width="20" height="20" as="geometry" />
        </mxCell>
        <mxCell id="4BeyeUX639bfHDLM1RSF-3" value="Brake Released:" style="text;html=1;align=center;verticalAlign=middle;whiteSpace=wrap;rounded=0;fontStyle=0" parent="1" vertex="1">
          <mxGeometry x="-70" y="70" width="90" height="20" as="geometry" />
        </mxCell>
        <mxCell id="rk4ucMxPZnRoB2hEoiQS-2" value="" style="ellipse;whiteSpace=wrap;html=1;fillColor=#d5e8d4;strokeColor=#82b366;" parent="1" vertex="1">
          <mxGeometry x="585" y="848" width="20" height="20" as="geometry" />
        </mxCell>
        <mxCell id="rk4ucMxPZnRoB2hEoiQS-3" value="" style="ellipse;whiteSpace=wrap;html=1;fillColor=#d5e8d4;strokeColor=#82b366;" parent="1" vertex="1">
          <mxGeometry x="585" y="908" width="20" height="20" as="geometry" />
        </mxCell>
        <mxCell id="CO8Xuy9hGiyh8shD-msW-1" value="" style="rounded=0;whiteSpace=wrap;html=1;" parent="1" vertex="1">
          <mxGeometry x="980" y="40" width="210" height="130" as="geometry" />
        </mxCell>
        <mxCell id="CO8Xuy9hGiyh8shD-msW-2" value="Open" style="rounded=0;whiteSpace=wrap;html=1;shadow=1;fillColor=#f5f5f5;fontColor=#333333;strokeColor=#666666;" parent="1" vertex="1">
          <mxGeometry x="990" y="70" width="90" height="40" as="geometry" />
        </mxCell>
        <mxCell id="CO8Xuy9hGiyh8shD-msW-3" value="Close" style="rounded=0;whiteSpace=wrap;html=1;shadow=1;fillColor=#f5f5f5;fontColor=#333333;strokeColor=#666666;" parent="1" vertex="1">
          <mxGeometry x="990" y="120" width="90" height="40" as="geometry" />
        </mxCell>
        <mxCell id="CO8Xuy9hGiyh8shD-msW-4" value="Outer Speed Door" style="text;html=1;align=center;verticalAlign=middle;whiteSpace=wrap;rounded=0;fontStyle=1" parent="1" vertex="1">
          <mxGeometry x="990" y="40" width="190" height="20" as="geometry" />
        </mxCell>
        <mxCell id="CO8Xuy9hGiyh8shD-msW-5" value="" style="ellipse;whiteSpace=wrap;html=1;fillColor=#d5e8d4;strokeColor=#82b366;" parent="1" vertex="1">
          <mxGeometry x="1125" y="90" width="20" height="20" as="geometry" />
        </mxCell>
        <mxCell id="CO8Xuy9hGiyh8shD-msW-6" value="Opened" style="text;html=1;align=center;verticalAlign=middle;whiteSpace=wrap;rounded=0;fontStyle=0" parent="1" vertex="1">
          <mxGeometry x="1090" y="70" width="90" height="20" as="geometry" />
        </mxCell>
        <mxCell id="CO8Xuy9hGiyh8shD-msW-7" value="" style="ellipse;whiteSpace=wrap;html=1;fillColor=#d5e8d4;strokeColor=#82b366;" parent="1" vertex="1">
          <mxGeometry x="1125" y="140" width="20" height="20" as="geometry" />
        </mxCell>
        <mxCell id="CO8Xuy9hGiyh8shD-msW-8" value="Closed" style="text;html=1;align=center;verticalAlign=middle;whiteSpace=wrap;rounded=0;fontStyle=0" parent="1" vertex="1">
          <mxGeometry x="1090" y="120" width="90" height="20" as="geometry" />
        </mxCell>
        <mxCell id="CO8Xuy9hGiyh8shD-msW-17" value="" style="rounded=0;whiteSpace=wrap;html=1;" parent="1" vertex="1">
          <mxGeometry x="1200" y="40" width="210" height="130" as="geometry" />
        </mxCell>
        <mxCell id="CO8Xuy9hGiyh8shD-msW-18" value="Lock" style="rounded=0;whiteSpace=wrap;html=1;shadow=1;fillColor=#f5f5f5;fontColor=#333333;strokeColor=#666666;" parent="1" vertex="1">
          <mxGeometry x="1210" y="70" width="90" height="40" as="geometry" />
        </mxCell>
        <mxCell id="CO8Xuy9hGiyh8shD-msW-19" value="Release" style="rounded=0;whiteSpace=wrap;html=1;shadow=1;fillColor=#f5f5f5;fontColor=#333333;strokeColor=#666666;" parent="1" vertex="1">
          <mxGeometry x="1210" y="120" width="90" height="40" as="geometry" />
        </mxCell>
        <mxCell id="CO8Xuy9hGiyh8shD-msW-20" value="Cleanroom Door Lock" style="text;html=1;align=center;verticalAlign=middle;whiteSpace=wrap;rounded=0;fontStyle=1" parent="1" vertex="1">
          <mxGeometry x="1210" y="40" width="190" height="20" as="geometry" />
        </mxCell>
        <mxCell id="CO8Xuy9hGiyh8shD-msW-21" value="" style="ellipse;whiteSpace=wrap;html=1;fillColor=#d5e8d4;strokeColor=#82b366;" parent="1" vertex="1">
          <mxGeometry x="1345" y="90" width="20" height="20" as="geometry" />
        </mxCell>
        <mxCell id="CO8Xuy9hGiyh8shD-msW-22" value="Locked" style="text;html=1;align=center;verticalAlign=middle;whiteSpace=wrap;rounded=0;fontStyle=0" parent="1" vertex="1">
          <mxGeometry x="1310" y="70" width="90" height="20" as="geometry" />
        </mxCell>
        <mxCell id="CO8Xuy9hGiyh8shD-msW-23" value="" style="ellipse;whiteSpace=wrap;html=1;fillColor=#d5e8d4;strokeColor=#82b366;" parent="1" vertex="1">
          <mxGeometry x="1345" y="140" width="20" height="20" as="geometry" />
        </mxCell>
        <mxCell id="CO8Xuy9hGiyh8shD-msW-24" value="Released" style="text;html=1;align=center;verticalAlign=middle;whiteSpace=wrap;rounded=0;fontStyle=0" parent="1" vertex="1">
          <mxGeometry x="1310" y="120" width="90" height="20" as="geometry" />
        </mxCell>
        <mxCell id="CO8Xuy9hGiyh8shD-msW-25" value="" style="rounded=0;whiteSpace=wrap;html=1;" parent="1" vertex="1">
          <mxGeometry x="980" y="180" width="210" height="130" as="geometry" />
        </mxCell>
        <mxCell id="CO8Xuy9hGiyh8shD-msW-26" value="Open" style="rounded=0;whiteSpace=wrap;html=1;shadow=1;fillColor=#f5f5f5;fontColor=#333333;strokeColor=#666666;" parent="1" vertex="1">
          <mxGeometry x="990" y="210" width="90" height="40" as="geometry" />
        </mxCell>
        <mxCell id="CO8Xuy9hGiyh8shD-msW-27" value="Close" style="rounded=0;whiteSpace=wrap;html=1;shadow=1;fillColor=#f5f5f5;fontColor=#333333;strokeColor=#666666;" parent="1" vertex="1">
          <mxGeometry x="990" y="260" width="90" height="40" as="geometry" />
        </mxCell>
        <mxCell id="CO8Xuy9hGiyh8shD-msW-28" value="Inner Speed Door" style="text;html=1;align=center;verticalAlign=middle;whiteSpace=wrap;rounded=0;fontStyle=1" parent="1" vertex="1">
          <mxGeometry x="990" y="180" width="190" height="20" as="geometry" />
        </mxCell>
        <mxCell id="CO8Xuy9hGiyh8shD-msW-29" value="" style="ellipse;whiteSpace=wrap;html=1;fillColor=#d5e8d4;strokeColor=#82b366;" parent="1" vertex="1">
          <mxGeometry x="1125" y="230" width="20" height="20" as="geometry" />
        </mxCell>
        <mxCell id="CO8Xuy9hGiyh8shD-msW-30" value="Opened" style="text;html=1;align=center;verticalAlign=middle;whiteSpace=wrap;rounded=0;fontStyle=0" parent="1" vertex="1">
          <mxGeometry x="1090" y="210" width="90" height="20" as="geometry" />
        </mxCell>
        <mxCell id="CO8Xuy9hGiyh8shD-msW-31" value="" style="ellipse;whiteSpace=wrap;html=1;fillColor=#d5e8d4;strokeColor=#82b366;" parent="1" vertex="1">
          <mxGeometry x="1125" y="280" width="20" height="20" as="geometry" />
        </mxCell>
        <mxCell id="CO8Xuy9hGiyh8shD-msW-32" value="Closed" style="text;html=1;align=center;verticalAlign=middle;whiteSpace=wrap;rounded=0;fontStyle=0" parent="1" vertex="1">
          <mxGeometry x="1090" y="260" width="90" height="20" as="geometry" />
        </mxCell>
        <mxCell id="CO8Xuy9hGiyh8shD-msW-33" value="" style="rounded=0;whiteSpace=wrap;html=1;" parent="1" vertex="1">
          <mxGeometry x="1440" y="40" width="210" height="410" as="geometry" />
        </mxCell>
        <mxCell id="CO8Xuy9hGiyh8shD-msW-35" value="Jog Up" style="rounded=0;whiteSpace=wrap;html=1;shadow=1;fillColor=#f5f5f5;fontColor=#333333;strokeColor=#666666;" parent="1" vertex="1">
          <mxGeometry x="1450" y="120" width="90" height="40" as="geometry" />
        </mxCell>
        <mxCell id="CO8Xuy9hGiyh8shD-msW-36" value="Jog Down" style="rounded=0;whiteSpace=wrap;html=1;shadow=1;fillColor=#f5f5f5;fontColor=#333333;strokeColor=#666666;" parent="1" vertex="1">
          <mxGeometry x="1450" y="170" width="90" height="40" as="geometry" />
        </mxCell>
        <mxCell id="CO8Xuy9hGiyh8shD-msW-37" value="Stop" style="rounded=0;whiteSpace=wrap;html=1;shadow=1;fillColor=#f5f5f5;fontColor=#333333;strokeColor=#666666;" parent="1" vertex="1">
          <mxGeometry x="1450" y="220" width="90" height="40" as="geometry" />
        </mxCell>
        <mxCell id="CO8Xuy9hGiyh8shD-msW-39" value="" style="ellipse;whiteSpace=wrap;html=1;fillColor=#d5e8d4;strokeColor=#82b366;" parent="1" vertex="1">
          <mxGeometry x="1585" y="132" width="20" height="20" as="geometry" />
        </mxCell>
        <mxCell id="CO8Xuy9hGiyh8shD-msW-40" value="Lift" style="text;html=1;align=center;verticalAlign=middle;whiteSpace=wrap;rounded=0;fontStyle=1" parent="1" vertex="1">
          <mxGeometry x="1450" y="40" width="190" height="20" as="geometry" />
        </mxCell>
        <mxCell id="CO8Xuy9hGiyh8shD-msW-41" value="Target speed:" style="text;html=1;align=left;verticalAlign=middle;whiteSpace=wrap;rounded=0;fontStyle=0" parent="1" vertex="1">
          <mxGeometry x="1450" y="390" width="90" height="20" as="geometry" />
        </mxCell>
        <mxCell id="CO8Xuy9hGiyh8shD-msW-42" value="Drive state:" style="text;html=1;align=center;verticalAlign=middle;whiteSpace=wrap;rounded=0;fontStyle=0" parent="1" vertex="1">
          <mxGeometry x="1550" y="112" width="90" height="20" as="geometry" />
        </mxCell>
        <mxCell id="CO8Xuy9hGiyh8shD-msW-46" value="Move to&lt;div&gt;position&lt;/div&gt;" style="rounded=0;whiteSpace=wrap;html=1;shadow=1;fillColor=#f5f5f5;fontColor=#333333;strokeColor=#666666;" parent="1" vertex="1">
          <mxGeometry x="1450" y="270" width="90" height="40" as="geometry" />
        </mxCell>
        <mxCell id="CO8Xuy9hGiyh8shD-msW-47" value="45.6 mm" style="rounded=0;whiteSpace=wrap;html=1;shadow=1;" parent="1" vertex="1">
          <mxGeometry x="1550" y="360" width="90" height="20" as="geometry" />
        </mxCell>
        <mxCell id="CO8Xuy9hGiyh8shD-msW-48" value="12.3 mm/s" style="rounded=0;whiteSpace=wrap;html=1;shadow=1;" parent="1" vertex="1">
          <mxGeometry x="1550" y="390" width="90" height="20" as="geometry" />
        </mxCell>
        <mxCell id="CO8Xuy9hGiyh8shD-msW-49" value="12.3 mm/s^2" style="rounded=0;whiteSpace=wrap;html=1;shadow=1;" parent="1" vertex="1">
          <mxGeometry x="1550" y="420" width="90" height="20" as="geometry" />
        </mxCell>
        <mxCell id="CO8Xuy9hGiyh8shD-msW-50" value="Target position:" style="text;html=1;align=left;verticalAlign=middle;whiteSpace=wrap;rounded=0;fontStyle=0" parent="1" vertex="1">
          <mxGeometry x="1450" y="360" width="90" height="20" as="geometry" />
        </mxCell>
        <mxCell id="CO8Xuy9hGiyh8shD-msW-51" value="Target acc/dec:" style="text;html=1;align=left;verticalAlign=middle;whiteSpace=wrap;rounded=0;fontStyle=0" parent="1" vertex="1">
          <mxGeometry x="1450" y="420" width="90" height="20" as="geometry" />
        </mxCell>
        <mxCell id="CO8Xuy9hGiyh8shD-msW-58" value="45.6 mm" style="rounded=0;whiteSpace=wrap;html=1;shadow=1;fillColor=#f5f5f5;fontColor=#333333;strokeColor=#666666;" parent="1" vertex="1">
          <mxGeometry x="1550" y="330" width="90" height="20" as="geometry" />
        </mxCell>
        <mxCell id="CO8Xuy9hGiyh8shD-msW-59" value="Actual position:" style="text;html=1;align=left;verticalAlign=middle;whiteSpace=wrap;rounded=0;fontStyle=0" parent="1" vertex="1">
          <mxGeometry x="1450" y="330" width="90" height="20" as="geometry" />
        </mxCell>
        <mxCell id="CO8Xuy9hGiyh8shD-msW-60" value="" style="rounded=0;whiteSpace=wrap;html=1;" parent="1" vertex="1">
          <mxGeometry x="1660" y="40" width="210" height="410" as="geometry" />
        </mxCell>
        <mxCell id="CO8Xuy9hGiyh8shD-msW-61" value="Jog Forward" style="rounded=0;whiteSpace=wrap;html=1;shadow=1;fillColor=#f5f5f5;fontColor=#333333;strokeColor=#666666;" parent="1" vertex="1">
          <mxGeometry x="1670" y="170" width="90" height="40" as="geometry" />
        </mxCell>
        <mxCell id="CO8Xuy9hGiyh8shD-msW-62" value="Jog Backward" style="rounded=0;whiteSpace=wrap;html=1;shadow=1;fillColor=#f5f5f5;fontColor=#333333;strokeColor=#666666;" parent="1" vertex="1">
          <mxGeometry x="1670" y="120" width="90" height="40" as="geometry" />
        </mxCell>
        <mxCell id="CO8Xuy9hGiyh8shD-msW-63" value="Stop" style="rounded=0;whiteSpace=wrap;html=1;shadow=1;fillColor=#f5f5f5;fontColor=#333333;strokeColor=#666666;" parent="1" vertex="1">
          <mxGeometry x="1670" y="220" width="90" height="40" as="geometry" />
        </mxCell>
        <mxCell id="CO8Xuy9hGiyh8shD-msW-64" value="Transport unit" style="text;html=1;align=center;verticalAlign=middle;whiteSpace=wrap;rounded=0;fontStyle=1" parent="1" vertex="1">
          <mxGeometry x="1670" y="40" width="190" height="20" as="geometry" />
        </mxCell>
        <mxCell id="CO8Xuy9hGiyh8shD-msW-65" value="Target speed:" style="text;html=1;align=left;verticalAlign=middle;whiteSpace=wrap;rounded=0;fontStyle=0" parent="1" vertex="1">
          <mxGeometry x="1670" y="390" width="90" height="20" as="geometry" />
        </mxCell>
        <mxCell id="CO8Xuy9hGiyh8shD-msW-66" value="Move to&lt;div&gt;position&lt;/div&gt;" style="rounded=0;whiteSpace=wrap;html=1;shadow=1;fillColor=#f5f5f5;fontColor=#333333;strokeColor=#666666;" parent="1" vertex="1">
          <mxGeometry x="1670" y="270" width="90" height="40" as="geometry" />
        </mxCell>
        <mxCell id="CO8Xuy9hGiyh8shD-msW-67" value="45.6 mm" style="rounded=0;whiteSpace=wrap;html=1;shadow=1;" parent="1" vertex="1">
          <mxGeometry x="1770" y="360" width="90" height="20" as="geometry" />
        </mxCell>
        <mxCell id="CO8Xuy9hGiyh8shD-msW-68" value="12.3 mm/s" style="rounded=0;whiteSpace=wrap;html=1;shadow=1;" parent="1" vertex="1">
          <mxGeometry x="1770" y="390" width="90" height="20" as="geometry" />
        </mxCell>
        <mxCell id="CO8Xuy9hGiyh8shD-msW-69" value="12.3 mm/s^2" style="rounded=0;whiteSpace=wrap;html=1;shadow=1;" parent="1" vertex="1">
          <mxGeometry x="1770" y="420" width="90" height="20" as="geometry" />
        </mxCell>
        <mxCell id="CO8Xuy9hGiyh8shD-msW-70" value="Target position:" style="text;html=1;align=left;verticalAlign=middle;whiteSpace=wrap;rounded=0;fontStyle=0" parent="1" vertex="1">
          <mxGeometry x="1670" y="360" width="90" height="20" as="geometry" />
        </mxCell>
        <mxCell id="CO8Xuy9hGiyh8shD-msW-71" value="Target acc/dec:" style="text;html=1;align=left;verticalAlign=middle;whiteSpace=wrap;rounded=0;fontStyle=0" parent="1" vertex="1">
          <mxGeometry x="1670" y="420" width="90" height="20" as="geometry" />
        </mxCell>
        <mxCell id="CO8Xuy9hGiyh8shD-msW-72" value="45.6 mm" style="rounded=0;whiteSpace=wrap;html=1;shadow=1;fillColor=#f5f5f5;fontColor=#333333;strokeColor=#666666;" parent="1" vertex="1">
          <mxGeometry x="1770" y="330" width="90" height="20" as="geometry" />
        </mxCell>
        <mxCell id="CO8Xuy9hGiyh8shD-msW-73" value="Actual position:" style="text;html=1;align=left;verticalAlign=middle;whiteSpace=wrap;rounded=0;fontStyle=0" parent="1" vertex="1">
          <mxGeometry x="1670" y="330" width="90" height="20" as="geometry" />
        </mxCell>
        <mxCell id="CO8Xuy9hGiyh8shD-msW-88" value="" style="ellipse;whiteSpace=wrap;html=1;fillColor=#d5e8d4;strokeColor=#82b366;" parent="1" vertex="1">
          <mxGeometry x="1585" y="82" width="20" height="20" as="geometry" />
        </mxCell>
        <mxCell id="CO8Xuy9hGiyh8shD-msW-89" value="Referenced" style="text;html=1;align=center;verticalAlign=middle;whiteSpace=wrap;rounded=0;fontStyle=0" parent="1" vertex="1">
          <mxGeometry x="1550" y="62" width="90" height="20" as="geometry" />
        </mxCell>
        <mxCell id="CO8Xuy9hGiyh8shD-msW-90" value="" style="ellipse;whiteSpace=wrap;html=1;fillColor=#d5e8d4;strokeColor=#82b366;" parent="1" vertex="1">
          <mxGeometry x="1805" y="132" width="20" height="20" as="geometry" />
        </mxCell>
        <mxCell id="CO8Xuy9hGiyh8shD-msW-91" value="Drive state:" style="text;html=1;align=center;verticalAlign=middle;whiteSpace=wrap;rounded=0;fontStyle=0" parent="1" vertex="1">
          <mxGeometry x="1770" y="112" width="90" height="20" as="geometry" />
        </mxCell>
        <mxCell id="CO8Xuy9hGiyh8shD-msW-92" value="" style="ellipse;whiteSpace=wrap;html=1;fillColor=#d5e8d4;strokeColor=#82b366;" parent="1" vertex="1">
          <mxGeometry x="1805" y="82" width="20" height="20" as="geometry" />
        </mxCell>
        <mxCell id="CO8Xuy9hGiyh8shD-msW-93" value="Referenced" style="text;html=1;align=center;verticalAlign=middle;whiteSpace=wrap;rounded=0;fontStyle=0" parent="1" vertex="1">
          <mxGeometry x="1770" y="62" width="90" height="20" as="geometry" />
        </mxCell>
        <mxCell id="CO8Xuy9hGiyh8shD-msW-94" value="" style="ellipse;whiteSpace=wrap;html=1;fillColor=#f8cecc;strokeColor=#b85450;" parent="1" vertex="1">
          <mxGeometry x="1585" y="182" width="20" height="20" as="geometry" />
        </mxCell>
        <mxCell id="CO8Xuy9hGiyh8shD-msW-95" value="" style="ellipse;whiteSpace=wrap;html=1;fillColor=#f8cecc;strokeColor=#b85450;" parent="1" vertex="1">
          <mxGeometry x="1805" y="182" width="20" height="20" as="geometry" />
        </mxCell>
        <mxCell id="CO8Xuy9hGiyh8shD-msW-96" value="Error" style="text;html=1;align=center;verticalAlign=middle;whiteSpace=wrap;rounded=0;fontStyle=0" parent="1" vertex="1">
          <mxGeometry x="1770" y="162" width="90" height="20" as="geometry" />
        </mxCell>
        <mxCell id="CO8Xuy9hGiyh8shD-msW-97" value="Error" style="text;html=1;align=center;verticalAlign=middle;whiteSpace=wrap;rounded=0;fontStyle=0" parent="1" vertex="1">
          <mxGeometry x="1550" y="162" width="90" height="20" as="geometry" />
        </mxCell>
        <mxCell id="CO8Xuy9hGiyh8shD-msW-98" value="Error ID" style="rounded=0;whiteSpace=wrap;html=1;shadow=1;fillColor=#f5f5f5;fontColor=#333333;strokeColor=#666666;" parent="1" vertex="1">
          <mxGeometry x="1550" y="220" width="90" height="20" as="geometry" />
        </mxCell>
        <mxCell id="CO8Xuy9hGiyh8shD-msW-99" value="Error ID" style="rounded=0;whiteSpace=wrap;html=1;shadow=1;fillColor=#f5f5f5;fontColor=#333333;strokeColor=#666666;" parent="1" vertex="1">
          <mxGeometry x="1770" y="220" width="90" height="20" as="geometry" />
        </mxCell>
        <mxCell id="CO8Xuy9hGiyh8shD-msW-102" value="Doors" style="rounded=0;whiteSpace=wrap;html=1;dashed=1;fillColor=none;verticalAlign=top;" parent="1" vertex="1">
          <mxGeometry x="970" y="10" width="450" height="310" as="geometry" />
        </mxCell>
        <mxCell id="CO8Xuy9hGiyh8shD-msW-113" value="" style="rounded=0;whiteSpace=wrap;html=1;movable=1;resizable=1;rotatable=1;deletable=1;editable=1;locked=0;connectable=1;" parent="1" vertex="1">
          <mxGeometry x="860" y="820" width="320" height="260" as="geometry" />
        </mxCell>
        <mxCell id="CO8Xuy9hGiyh8shD-msW-151" value="Reference" style="rounded=0;whiteSpace=wrap;html=1;shadow=1;fillColor=#f5f5f5;fontColor=#333333;strokeColor=#666666;" parent="1" vertex="1">
          <mxGeometry x="1450" y="70" width="90" height="40" as="geometry" />
        </mxCell>
        <mxCell id="CO8Xuy9hGiyh8shD-msW-152" value="Reference" style="rounded=0;whiteSpace=wrap;html=1;shadow=1;fillColor=#f5f5f5;fontColor=#333333;strokeColor=#666666;" parent="1" vertex="1">
          <mxGeometry x="1670" y="70" width="90" height="40" as="geometry" />
        </mxCell>
        <mxCell id="CO8Xuy9hGiyh8shD-msW-154" value="Doors (air lock)" style="text;html=1;align=center;verticalAlign=middle;whiteSpace=wrap;rounded=0;fontStyle=1;movable=1;resizable=1;rotatable=1;deletable=1;editable=1;locked=0;connectable=1;" parent="1" vertex="1">
          <mxGeometry x="860" y="820" width="320" height="20" as="geometry" />
        </mxCell>
        <mxCell id="CO8Xuy9hGiyh8shD-msW-155" value="Idle&lt;br&gt;(closed)" style="rounded=0;whiteSpace=wrap;html=1;shadow=1;fillColor=#f5f5f5;fontColor=#333333;strokeColor=#666666;movable=1;resizable=1;rotatable=1;deletable=1;editable=1;locked=0;connectable=1;" parent="1" vertex="1">
          <mxGeometry x="870" y="848" width="90" height="40" as="geometry" />
        </mxCell>
        <mxCell id="CO8Xuy9hGiyh8shD-msW-161" value="Inner door opened" style="text;html=1;align=left;verticalAlign=middle;whiteSpace=wrap;rounded=0;fontStyle=0;fillColor=none;movable=1;resizable=1;rotatable=1;deletable=1;editable=1;locked=0;connectable=1;" parent="1" vertex="1">
          <mxGeometry x="1015" y="960" width="155" height="20" as="geometry" />
        </mxCell>
        <mxCell id="CO8Xuy9hGiyh8shD-msW-162" value="Inner door closed" style="text;html=1;align=left;verticalAlign=middle;whiteSpace=wrap;rounded=0;fontStyle=0;fillColor=none;movable=1;resizable=1;rotatable=1;deletable=1;editable=1;locked=0;connectable=1;" parent="1" vertex="1">
          <mxGeometry x="1015" y="928" width="155" height="20" as="geometry" />
        </mxCell>
        <mxCell id="CO8Xuy9hGiyh8shD-msW-165" value="Cleanroom door releaed" style="text;html=1;align=left;verticalAlign=middle;whiteSpace=wrap;rounded=0;fontStyle=0;fillColor=none;movable=1;resizable=1;rotatable=1;deletable=1;editable=1;locked=0;connectable=1;" parent="1" vertex="1">
          <mxGeometry x="1015" y="1040" width="155" height="20" as="geometry" />
        </mxCell>
        <mxCell id="CO8Xuy9hGiyh8shD-msW-166" value="Cleanroom door locked" style="text;html=1;align=left;verticalAlign=middle;whiteSpace=wrap;rounded=0;fontStyle=0;fillColor=none;movable=1;resizable=1;rotatable=1;deletable=1;editable=1;locked=0;connectable=1;" parent="1" vertex="1">
          <mxGeometry x="1015" y="1008" width="155" height="20" as="geometry" />
        </mxCell>
        <mxCell id="CO8Xuy9hGiyh8shD-msW-180" value="TB Docking" style="rounded=0;whiteSpace=wrap;html=1;shadow=1;fillColor=#f5f5f5;fontColor=#333333;strokeColor=#666666;movable=1;resizable=1;rotatable=1;deletable=1;editable=1;locked=0;connectable=1;" parent="1" vertex="1">
          <mxGeometry x="870" y="908" width="90" height="40" as="geometry" />
        </mxCell>
        <mxCell id="CO8Xuy9hGiyh8shD-msW-181" value="Trolly&lt;div&gt;Handling&lt;/div&gt;" style="rounded=0;whiteSpace=wrap;html=1;shadow=1;fillColor=#f5f5f5;fontColor=#333333;strokeColor=#666666;movable=1;resizable=1;rotatable=1;deletable=1;editable=1;locked=0;connectable=1;" parent="1" vertex="1">
          <mxGeometry x="870" y="968" width="90" height="40" as="geometry" />
        </mxCell>
        <mxCell id="CO8Xuy9hGiyh8shD-msW-183" value="Outer door opened" style="text;html=1;align=left;verticalAlign=middle;whiteSpace=wrap;rounded=0;fontStyle=0;fillColor=none;movable=1;resizable=1;rotatable=1;deletable=1;editable=1;locked=0;connectable=1;" parent="1" vertex="1">
          <mxGeometry x="1015" y="880" width="155" height="20" as="geometry" />
        </mxCell>
        <mxCell id="CO8Xuy9hGiyh8shD-msW-184" value="Outer door closed" style="text;html=1;align=left;verticalAlign=middle;whiteSpace=wrap;rounded=0;fontStyle=0;fillColor=none;movable=1;resizable=1;rotatable=1;deletable=1;editable=1;locked=0;connectable=1;" parent="1" vertex="1">
          <mxGeometry x="1015" y="850" width="155" height="20" as="geometry" />
        </mxCell>
        <mxCell id="CO8Xuy9hGiyh8shD-msW-186" value="Cleanroom Accces" style="rounded=0;whiteSpace=wrap;html=1;shadow=1;fillColor=#f5f5f5;fontColor=#333333;strokeColor=#666666;movable=1;resizable=1;rotatable=1;deletable=1;editable=1;locked=0;connectable=1;" parent="1" vertex="1">
          <mxGeometry x="870" y="1027.5" width="90" height="40" as="geometry" />
        </mxCell>
        <mxCell id="9jHFJEjdW6-oCjLIFIaf-14" value="M" style="ellipse;whiteSpace=wrap;html=1;aspect=fixed;" vertex="1" parent="1">
          <mxGeometry x="-10" y="50" width="30" height="30" as="geometry" />
        </mxCell>
        <mxCell id="9jHFJEjdW6-oCjLIFIaf-21" value="" style="group" vertex="1" connectable="0" parent="1">
          <mxGeometry x="220" y="50" width="20" height="40" as="geometry" />
        </mxCell>
        <mxCell id="9jHFJEjdW6-oCjLIFIaf-17" value="" style="triangle;whiteSpace=wrap;html=1;direction=west;rotation=-90;" vertex="1" parent="9jHFJEjdW6-oCjLIFIaf-21">
          <mxGeometry width="20" height="20" as="geometry" />
        </mxCell>
        <mxCell id="9jHFJEjdW6-oCjLIFIaf-16" value="" style="triangle;whiteSpace=wrap;html=1;rotation=-90;" vertex="1" parent="9jHFJEjdW6-oCjLIFIaf-21">
          <mxGeometry y="20" width="20" height="20" as="geometry" />
        </mxCell>
        <mxCell id="9jHFJEjdW6-oCjLIFIaf-22" value="" style="group" vertex="1" connectable="0" parent="1">
          <mxGeometry x="470" y="50" width="20" height="40" as="geometry" />
        </mxCell>
        <mxCell id="9jHFJEjdW6-oCjLIFIaf-23" value="" style="triangle;whiteSpace=wrap;html=1;direction=west;rotation=-90;" vertex="1" parent="9jHFJEjdW6-oCjLIFIaf-22">
          <mxGeometry width="20" height="20" as="geometry" />
        </mxCell>
        <mxCell id="9jHFJEjdW6-oCjLIFIaf-24" value="" style="triangle;whiteSpace=wrap;html=1;rotation=-90;" vertex="1" parent="9jHFJEjdW6-oCjLIFIaf-22">
          <mxGeometry y="20" width="20" height="20" as="geometry" />
        </mxCell>
        <mxCell id="9jHFJEjdW6-oCjLIFIaf-25" value="" style="group" vertex="1" connectable="0" parent="1">
          <mxGeometry x="700" y="50" width="20" height="40" as="geometry" />
        </mxCell>
        <mxCell id="9jHFJEjdW6-oCjLIFIaf-26" value="" style="triangle;whiteSpace=wrap;html=1;direction=west;rotation=-90;" vertex="1" parent="9jHFJEjdW6-oCjLIFIaf-25">
          <mxGeometry width="20" height="20" as="geometry" />
        </mxCell>
        <mxCell id="9jHFJEjdW6-oCjLIFIaf-27" value="" style="triangle;whiteSpace=wrap;html=1;rotation=-90;" vertex="1" parent="9jHFJEjdW6-oCjLIFIaf-25">
          <mxGeometry y="20" width="20" height="20" as="geometry" />
        </mxCell>
        <mxCell id="9jHFJEjdW6-oCjLIFIaf-28" value="" style="group" vertex="1" connectable="0" parent="1">
          <mxGeometry x="920" y="50" width="20" height="40" as="geometry" />
        </mxCell>
        <mxCell id="9jHFJEjdW6-oCjLIFIaf-29" value="" style="triangle;whiteSpace=wrap;html=1;direction=west;rotation=-90;" vertex="1" parent="9jHFJEjdW6-oCjLIFIaf-28">
          <mxGeometry width="20" height="20" as="geometry" />
        </mxCell>
        <mxCell id="9jHFJEjdW6-oCjLIFIaf-30" value="" style="triangle;whiteSpace=wrap;html=1;rotation=-90;" vertex="1" parent="9jHFJEjdW6-oCjLIFIaf-28">
          <mxGeometry y="20" width="20" height="20" as="geometry" />
        </mxCell>
        <mxCell id="9jHFJEjdW6-oCjLIFIaf-31" value="" style="group" vertex="1" connectable="0" parent="1">
          <mxGeometry x="1160" y="50" width="20" height="40" as="geometry" />
        </mxCell>
        <mxCell id="9jHFJEjdW6-oCjLIFIaf-32" value="" style="triangle;whiteSpace=wrap;html=1;direction=west;rotation=-90;" vertex="1" parent="9jHFJEjdW6-oCjLIFIaf-31">
          <mxGeometry width="20" height="20" as="geometry" />
        </mxCell>
        <mxCell id="9jHFJEjdW6-oCjLIFIaf-33" value="" style="triangle;whiteSpace=wrap;html=1;rotation=-90;" vertex="1" parent="9jHFJEjdW6-oCjLIFIaf-31">
          <mxGeometry y="20" width="20" height="20" as="geometry" />
        </mxCell>
        <mxCell id="9jHFJEjdW6-oCjLIFIaf-34" value="" style="group" vertex="1" connectable="0" parent="1">
          <mxGeometry x="1380" y="50" width="20" height="40" as="geometry" />
        </mxCell>
        <mxCell id="9jHFJEjdW6-oCjLIFIaf-35" value="" style="triangle;whiteSpace=wrap;html=1;direction=west;rotation=-90;" vertex="1" parent="9jHFJEjdW6-oCjLIFIaf-34">
          <mxGeometry width="20" height="20" as="geometry" />
        </mxCell>
        <mxCell id="9jHFJEjdW6-oCjLIFIaf-36" value="" style="triangle;whiteSpace=wrap;html=1;rotation=-90;" vertex="1" parent="9jHFJEjdW6-oCjLIFIaf-34">
          <mxGeometry y="20" width="20" height="20" as="geometry" />
        </mxCell>
        <mxCell id="9jHFJEjdW6-oCjLIFIaf-40" value="M" style="ellipse;whiteSpace=wrap;html=1;aspect=fixed;" vertex="1" parent="1">
          <mxGeometry x="1610" y="50" width="30" height="30" as="geometry" />
        </mxCell>
        <mxCell id="9jHFJEjdW6-oCjLIFIaf-41" value="M" style="ellipse;whiteSpace=wrap;html=1;aspect=fixed;" vertex="1" parent="1">
          <mxGeometry x="1840" y="50" width="30" height="30" as="geometry" />
        </mxCell>
        <mxCell id="9jHFJEjdW6-oCjLIFIaf-42" value="" style="group" vertex="1" connectable="0" parent="1">
          <mxGeometry x="470" y="190" width="20" height="40" as="geometry" />
        </mxCell>
        <mxCell id="9jHFJEjdW6-oCjLIFIaf-43" value="" style="triangle;whiteSpace=wrap;html=1;direction=west;rotation=-90;" vertex="1" parent="9jHFJEjdW6-oCjLIFIaf-42">
          <mxGeometry width="20" height="20" as="geometry" />
        </mxCell>
        <mxCell id="9jHFJEjdW6-oCjLIFIaf-44" value="" style="triangle;whiteSpace=wrap;html=1;rotation=-90;" vertex="1" parent="9jHFJEjdW6-oCjLIFIaf-42">
          <mxGeometry y="20" width="20" height="20" as="geometry" />
        </mxCell>
        <mxCell id="9jHFJEjdW6-oCjLIFIaf-45" value="" style="group" vertex="1" connectable="0" parent="1">
          <mxGeometry x="700" y="190" width="20" height="40" as="geometry" />
        </mxCell>
        <mxCell id="9jHFJEjdW6-oCjLIFIaf-46" value="" style="triangle;whiteSpace=wrap;html=1;direction=west;rotation=-90;" vertex="1" parent="9jHFJEjdW6-oCjLIFIaf-45">
          <mxGeometry width="20" height="20" as="geometry" />
        </mxCell>
        <mxCell id="9jHFJEjdW6-oCjLIFIaf-47" value="" style="triangle;whiteSpace=wrap;html=1;rotation=-90;" vertex="1" parent="9jHFJEjdW6-oCjLIFIaf-45">
          <mxGeometry y="20" width="20" height="20" as="geometry" />
        </mxCell>
        <mxCell id="9jHFJEjdW6-oCjLIFIaf-48" value="" style="group" vertex="1" connectable="0" parent="1">
          <mxGeometry x="920" y="190" width="20" height="40" as="geometry" />
        </mxCell>
        <mxCell id="9jHFJEjdW6-oCjLIFIaf-49" value="" style="triangle;whiteSpace=wrap;html=1;direction=west;rotation=-90;" vertex="1" parent="9jHFJEjdW6-oCjLIFIaf-48">
          <mxGeometry width="20" height="20" as="geometry" />
        </mxCell>
        <mxCell id="9jHFJEjdW6-oCjLIFIaf-50" value="" style="triangle;whiteSpace=wrap;html=1;rotation=-90;" vertex="1" parent="9jHFJEjdW6-oCjLIFIaf-48">
          <mxGeometry y="20" width="20" height="20" as="geometry" />
        </mxCell>
        <mxCell id="9jHFJEjdW6-oCjLIFIaf-52" value="" style="group" vertex="1" connectable="0" parent="1">
          <mxGeometry x="1160" y="190" width="20" height="40" as="geometry" />
        </mxCell>
        <mxCell id="9jHFJEjdW6-oCjLIFIaf-53" value="" style="triangle;whiteSpace=wrap;html=1;direction=west;rotation=-90;" vertex="1" parent="9jHFJEjdW6-oCjLIFIaf-52">
          <mxGeometry width="20" height="20" as="geometry" />
        </mxCell>
        <mxCell id="9jHFJEjdW6-oCjLIFIaf-54" value="" style="triangle;whiteSpace=wrap;html=1;rotation=-90;" vertex="1" parent="9jHFJEjdW6-oCjLIFIaf-52">
          <mxGeometry y="20" width="20" height="20" as="geometry" />
        </mxCell>
        <mxCell id="9jHFJEjdW6-oCjLIFIaf-60" value="" style="ellipse;whiteSpace=wrap;html=1;fillColor=#d5e8d4;strokeColor=#82b366;fontStyle=0;movable=1;resizable=1;rotatable=1;deletable=1;editable=1;locked=0;connectable=1;" vertex="1" parent="1">
          <mxGeometry x="990" y="850" width="20" height="20" as="geometry" />
        </mxCell>
        <mxCell id="9jHFJEjdW6-oCjLIFIaf-61" value="" style="ellipse;whiteSpace=wrap;html=1;fillColor=#d5e8d4;strokeColor=#82b366;fontStyle=0;movable=1;resizable=1;rotatable=1;deletable=1;editable=1;locked=0;connectable=1;" vertex="1" parent="1">
          <mxGeometry x="990" y="880" width="20" height="20" as="geometry" />
        </mxCell>
        <mxCell id="9jHFJEjdW6-oCjLIFIaf-62" value="" style="ellipse;whiteSpace=wrap;html=1;fillColor=#d5e8d4;strokeColor=#82b366;fontStyle=0;movable=1;resizable=1;rotatable=1;deletable=1;editable=1;locked=0;connectable=1;" vertex="1" parent="1">
          <mxGeometry x="990" y="930" width="20" height="20" as="geometry" />
        </mxCell>
        <mxCell id="9jHFJEjdW6-oCjLIFIaf-63" value="" style="ellipse;whiteSpace=wrap;html=1;fillColor=#d5e8d4;strokeColor=#82b366;fontStyle=0;movable=1;resizable=1;rotatable=1;deletable=1;editable=1;locked=0;connectable=1;" vertex="1" parent="1">
          <mxGeometry x="990" y="960" width="20" height="20" as="geometry" />
        </mxCell>
        <mxCell id="9jHFJEjdW6-oCjLIFIaf-64" value="" style="ellipse;whiteSpace=wrap;html=1;fillColor=#d5e8d4;strokeColor=#82b366;fontStyle=0;movable=1;resizable=1;rotatable=1;deletable=1;editable=1;locked=0;connectable=1;" vertex="1" parent="1">
          <mxGeometry x="990" y="1010" width="20" height="20" as="geometry" />
        </mxCell>
        <mxCell id="9jHFJEjdW6-oCjLIFIaf-65" value="" style="ellipse;whiteSpace=wrap;html=1;fillColor=#d5e8d4;strokeColor=#82b366;fontStyle=0;movable=1;resizable=1;rotatable=1;deletable=1;editable=1;locked=0;connectable=1;" vertex="1" parent="1">
          <mxGeometry x="990" y="1040" width="20" height="20" as="geometry" />
        </mxCell>
        <mxCell id="9jHFJEjdW6-oCjLIFIaf-66" value="" style="rounded=0;whiteSpace=wrap;html=1;movable=1;resizable=1;rotatable=1;deletable=1;editable=1;locked=0;connectable=1;" vertex="1" parent="1">
          <mxGeometry x="1270" y="820" width="320" height="200" as="geometry" />
        </mxCell>
        <mxCell id="9jHFJEjdW6-oCjLIFIaf-67" value="Lifting Transport" style="text;html=1;align=center;verticalAlign=middle;whiteSpace=wrap;rounded=0;fontStyle=1;movable=1;resizable=1;rotatable=1;deletable=1;editable=1;locked=0;connectable=1;" vertex="1" parent="1">
          <mxGeometry x="1270" y="820" width="320" height="20" as="geometry" />
        </mxCell>
        <mxCell id="9jHFJEjdW6-oCjLIFIaf-68" value="Go To Idle" style="rounded=0;whiteSpace=wrap;html=1;shadow=1;fillColor=#f5f5f5;fontColor=#333333;strokeColor=#666666;movable=1;resizable=1;rotatable=1;deletable=1;editable=1;locked=0;connectable=1;" vertex="1" parent="1">
          <mxGeometry x="1280" y="848" width="90" height="40" as="geometry" />
        </mxCell>
        <mxCell id="9jHFJEjdW6-oCjLIFIaf-70" value="Trolly picked" style="text;html=1;align=left;verticalAlign=middle;whiteSpace=wrap;rounded=0;fontStyle=0;fillColor=none;movable=1;resizable=1;rotatable=1;deletable=1;editable=1;locked=0;connectable=1;" vertex="1" parent="1">
          <mxGeometry x="1425" y="917" width="155" height="20" as="geometry" />
        </mxCell>
        <mxCell id="9jHFJEjdW6-oCjLIFIaf-72" value="Trolley returned" style="text;html=1;align=left;verticalAlign=middle;whiteSpace=wrap;rounded=0;fontStyle=0;fillColor=none;movable=1;resizable=1;rotatable=1;deletable=1;editable=1;locked=0;connectable=1;" vertex="1" parent="1">
          <mxGeometry x="1425" y="977" width="155" height="20" as="geometry" />
        </mxCell>
        <mxCell id="9jHFJEjdW6-oCjLIFIaf-73" value="Pick Up Trolley From TB" style="rounded=0;whiteSpace=wrap;html=1;shadow=1;fillColor=#f5f5f5;fontColor=#333333;strokeColor=#666666;movable=1;resizable=1;rotatable=1;deletable=1;editable=1;locked=0;connectable=1;" vertex="1" parent="1">
          <mxGeometry x="1280" y="908" width="90" height="40" as="geometry" />
        </mxCell>
        <mxCell id="9jHFJEjdW6-oCjLIFIaf-74" value="Return Trolley To TB" style="rounded=0;whiteSpace=wrap;html=1;shadow=1;fillColor=#f5f5f5;fontColor=#333333;strokeColor=#666666;movable=1;resizable=1;rotatable=1;deletable=1;editable=1;locked=0;connectable=1;" vertex="1" parent="1">
          <mxGeometry x="1280" y="968" width="90" height="40" as="geometry" />
        </mxCell>
        <mxCell id="9jHFJEjdW6-oCjLIFIaf-76" value="At Idle position" style="text;html=1;align=left;verticalAlign=middle;whiteSpace=wrap;rounded=0;fontStyle=0;fillColor=none;movable=1;resizable=1;rotatable=1;deletable=1;editable=1;locked=0;connectable=1;" vertex="1" parent="1">
          <mxGeometry x="1430" y="858" width="150" height="20" as="geometry" />
        </mxCell>
        <mxCell id="9jHFJEjdW6-oCjLIFIaf-78" value="" style="ellipse;whiteSpace=wrap;html=1;fillColor=#d5e8d4;strokeColor=#82b366;fontStyle=0;movable=1;resizable=1;rotatable=1;deletable=1;editable=1;locked=0;connectable=1;" vertex="1" parent="1">
          <mxGeometry x="1400" y="858" width="20" height="20" as="geometry" />
        </mxCell>
        <mxCell id="9jHFJEjdW6-oCjLIFIaf-80" value="" style="ellipse;whiteSpace=wrap;html=1;fillColor=#d5e8d4;strokeColor=#82b366;fontStyle=0;movable=1;resizable=1;rotatable=1;deletable=1;editable=1;locked=0;connectable=1;" vertex="1" parent="1">
          <mxGeometry x="1400" y="919" width="20" height="20" as="geometry" />
        </mxCell>
        <mxCell id="9jHFJEjdW6-oCjLIFIaf-82" value="" style="ellipse;whiteSpace=wrap;html=1;fillColor=#d5e8d4;strokeColor=#82b366;fontStyle=0;movable=1;resizable=1;rotatable=1;deletable=1;editable=1;locked=0;connectable=1;" vertex="1" parent="1">
          <mxGeometry x="1400" y="980" width="20" height="20" as="geometry" />
        </mxCell>
        <mxCell id="9jHFJEjdW6-oCjLIFIaf-85" value="" style="rounded=0;whiteSpace=wrap;html=1;" vertex="1" parent="1">
          <mxGeometry x="40" y="1280" width="320" height="280" as="geometry" />
        </mxCell>
        <mxCell id="9jHFJEjdW6-oCjLIFIaf-86" value="Cleanroom Connect" style="text;html=1;align=center;verticalAlign=middle;whiteSpace=wrap;rounded=0;fontStyle=1" vertex="1" parent="1">
          <mxGeometry x="40" y="1280" width="320" height="20" as="geometry" />
        </mxCell>
        <mxCell id="9jHFJEjdW6-oCjLIFIaf-87" value="Dock&lt;div&gt;TB&lt;/div&gt;" style="rounded=0;whiteSpace=wrap;html=1;shadow=1;fillColor=#f5f5f5;fontColor=#333333;strokeColor=#666666;" vertex="1" parent="1">
          <mxGeometry x="50" y="1310" width="90" height="40" as="geometry" />
        </mxCell>
        <mxCell id="9jHFJEjdW6-oCjLIFIaf-88" value="Undock&lt;div&gt;TB&lt;/div&gt;" style="rounded=0;whiteSpace=wrap;html=1;shadow=1;fillColor=#f5f5f5;fontColor=#333333;strokeColor=#666666;" vertex="1" parent="1">
          <mxGeometry x="50" y="1370" width="90" height="40" as="geometry" />
        </mxCell>
        <mxCell id="9jHFJEjdW6-oCjLIFIaf-89" value="Unload Trolley&lt;div&gt;From TB&lt;/div&gt;" style="rounded=0;whiteSpace=wrap;html=1;shadow=1;fillColor=#f5f5f5;fontColor=#333333;strokeColor=#666666;" vertex="1" parent="1">
          <mxGeometry x="50" y="1450" width="90" height="40" as="geometry" />
        </mxCell>
        <mxCell id="9jHFJEjdW6-oCjLIFIaf-91" value="TB Docked" style="text;html=1;align=left;verticalAlign=middle;whiteSpace=wrap;rounded=0;fontStyle=0;fillColor=none;" vertex="1" parent="1">
          <mxGeometry x="180" y="1320" width="115" height="20" as="geometry" />
        </mxCell>
        <mxCell id="9jHFJEjdW6-oCjLIFIaf-92" value="" style="ellipse;whiteSpace=wrap;html=1;fillColor=#d5e8d4;strokeColor=#82b366;" vertex="1" parent="1">
          <mxGeometry x="150" y="1320" width="20" height="20" as="geometry" />
        </mxCell>
        <mxCell id="9jHFJEjdW6-oCjLIFIaf-95" value="TB Undocked" style="text;html=1;align=left;verticalAlign=middle;whiteSpace=wrap;rounded=0;fontStyle=0;fillColor=none;" vertex="1" parent="1">
          <mxGeometry x="180" y="1380" width="115" height="20" as="geometry" />
        </mxCell>
        <mxCell id="9jHFJEjdW6-oCjLIFIaf-96" value="" style="ellipse;whiteSpace=wrap;html=1;fillColor=#d5e8d4;strokeColor=#82b366;" vertex="1" parent="1">
          <mxGeometry x="150" y="1380" width="20" height="20" as="geometry" />
        </mxCell>
        <mxCell id="9jHFJEjdW6-oCjLIFIaf-99" value="Trolley Unloaded&amp;nbsp;" style="text;html=1;align=left;verticalAlign=middle;whiteSpace=wrap;rounded=0;fontStyle=0;fillColor=none;" vertex="1" parent="1">
          <mxGeometry x="180" y="1460" width="115" height="20" as="geometry" />
        </mxCell>
        <mxCell id="9jHFJEjdW6-oCjLIFIaf-100" value="" style="ellipse;whiteSpace=wrap;html=1;fillColor=#d5e8d4;strokeColor=#82b366;" vertex="1" parent="1">
          <mxGeometry x="150" y="1460" width="20" height="20" as="geometry" />
        </mxCell>
        <mxCell id="9jHFJEjdW6-oCjLIFIaf-104" value="Load Trolley&lt;div&gt;To TB&lt;/div&gt;" style="rounded=0;whiteSpace=wrap;html=1;shadow=1;fillColor=#f5f5f5;fontColor=#333333;strokeColor=#666666;" vertex="1" parent="1">
          <mxGeometry x="50" y="1510.5" width="90" height="40" as="geometry" />
        </mxCell>
        <mxCell id="9jHFJEjdW6-oCjLIFIaf-106" value="Trolley Loaded" style="text;html=1;align=left;verticalAlign=middle;whiteSpace=wrap;rounded=0;fontStyle=0;fillColor=none;" vertex="1" parent="1">
          <mxGeometry x="180" y="1520.5" width="115" height="20" as="geometry" />
        </mxCell>
        <mxCell id="9jHFJEjdW6-oCjLIFIaf-107" value="" style="ellipse;whiteSpace=wrap;html=1;fillColor=#d5e8d4;strokeColor=#82b366;" vertex="1" parent="1">
          <mxGeometry x="150" y="1520.5" width="20" height="20" as="geometry" />
        </mxCell>
      </root>
    </mxGraphModel>
  </diagram>
</mxfile>
